<?xml version="1.0" encoding="utf-8" standalone="no"?>
<!DOCTYPE svg PUBLIC "-//W3C//DTD SVG 1.1//EN"
  "http://www.w3.org/Graphics/SVG/1.1/DTD/svg11.dtd">
<svg xmlns:xlink="http://www.w3.org/1999/xlink" width="736.490625pt" height="337.074375pt" viewBox="0 0 736.490625 337.074375" xmlns="http://www.w3.org/2000/svg" version="1.1">
 <metadata>
  <rdf:RDF xmlns:dc="http://purl.org/dc/elements/1.1/" xmlns:cc="http://creativecommons.org/ns#" xmlns:rdf="http://www.w3.org/1999/02/22-rdf-syntax-ns#">
   <cc:Work>
    <dc:type rdf:resource="http://purl.org/dc/dcmitype/StillImage"/>
    <dc:date>2026-07-07T15:05:08.130231</dc:date>
    <dc:format>image/svg+xml</dc:format>
    <dc:creator>
     <cc:Agent>
      <dc:title>Matplotlib v3.10.8, https://matplotlib.org/</dc:title>
     </cc:Agent>
    </dc:creator>
   </cc:Work>
  </rdf:RDF>
 </metadata>
 <defs>
  <style type="text/css">*{stroke-linejoin: round; stroke-linecap: butt}</style>
 </defs>
 <g id="figure_1">
  <g id="patch_1">
   <path d="M 0 337.074375 
L 736.490625 337.074375 
L 736.490625 0 
L 0 0 
z
" style="fill: #ffffff"/>
  </g>
  <g id="axes_1">
   <g id="patch_2">
    <path d="M 59.690625 299.518125 
L 729.290625 299.518125 
L 729.290625 22.318125 
L 59.690625 22.318125 
z
" style="fill: #ffffff"/>
   </g>
   <g id="patch_3">
    <path d="M 115.490625 279.064345 
L 115.490625 279.064345 
L 115.490625 279.064345 
L 115.490625 279.064345 
z
" clip-path="url(#pd0e45f7ea0)" style="fill: #d25d51; stroke: #4b4b4b; stroke-linejoin: miter"/>
   </g>
   <g id="patch_4">
    <path d="M 115.490625 279.064345 
L 115.490625 279.064345 
L 115.490625 279.064345 
L 115.490625 279.064345 
z
" clip-path="url(#pd0e45f7ea0)" style="fill: #42b874; stroke: #4b4b4b; stroke-linejoin: miter"/>
   </g>
   <g id="matplotlib.axis_1">
    <g id="xtick_1">
     <g id="line2d_1">
      <defs>
       <path id="m4cf7c02e86" d="M 0 0 
L 0 3.5 
" style="stroke: #000000; stroke-width: 0.8"/>
      </defs>
      <g>
       <use xlink:href="#m4cf7c02e86" x="115.490625" y="299.518125" style="stroke: #000000; stroke-width: 0.8"/>
      </g>
     </g>
     <g id="text_1">
      <!-- Bifidobacterium -->
      <g transform="translate(75.780469 314.116563) scale(0.1 -0.1)">
       <defs>
        <path id="DejaVuSans-42" d="M 1259 2228 
L 1259 519 
L 2272 519 
Q 2781 519 3026 730 
Q 3272 941 3272 1375 
Q 3272 1813 3026 2020 
Q 2781 2228 2272 2228 
L 1259 2228 
z
M 1259 4147 
L 1259 2741 
L 2194 2741 
Q 2656 2741 2882 2914 
Q 3109 3088 3109 3444 
Q 3109 3797 2882 3972 
Q 2656 4147 2194 4147 
L 1259 4147 
z
M 628 4666 
L 2241 4666 
Q 2963 4666 3353 4366 
Q 3744 4066 3744 3513 
Q 3744 3084 3544 2831 
Q 3344 2578 2956 2516 
Q 3422 2416 3680 2098 
Q 3938 1781 3938 1306 
Q 3938 681 3513 340 
Q 3088 0 2303 0 
L 628 0 
L 628 4666 
z
" transform="scale(0.015625)"/>
        <path id="DejaVuSans-69" d="M 603 3500 
L 1178 3500 
L 1178 0 
L 603 0 
L 603 3500 
z
M 603 4863 
L 1178 4863 
L 1178 4134 
L 603 4134 
L 603 4863 
z
" transform="scale(0.015625)"/>
        <path id="DejaVuSans-66" d="M 2375 4863 
L 2375 4384 
L 1825 4384 
Q 1516 4384 1395 4259 
Q 1275 4134 1275 3809 
L 1275 3500 
L 2222 3500 
L 2222 3053 
L 1275 3053 
L 1275 0 
L 697 0 
L 697 3053 
L 147 3053 
L 147 3500 
L 697 3500 
L 697 3744 
Q 697 4328 969 4595 
Q 1241 4863 1831 4863 
L 2375 4863 
z
" transform="scale(0.015625)"/>
        <path id="DejaVuSans-64" d="M 2906 2969 
L 2906 4863 
L 3481 4863 
L 3481 0 
L 2906 0 
L 2906 525 
Q 2725 213 2448 61 
Q 2172 -91 1784 -91 
Q 1150 -91 751 415 
Q 353 922 353 1747 
Q 353 2572 751 3078 
Q 1150 3584 1784 3584 
Q 2172 3584 2448 3432 
Q 2725 3281 2906 2969 
z
M 947 1747 
Q 947 1113 1208 752 
Q 1469 391 1925 391 
Q 2381 391 2643 752 
Q 2906 1113 2906 1747 
Q 2906 2381 2643 2742 
Q 2381 3103 1925 3103 
Q 1469 3103 1208 2742 
Q 947 2381 947 1747 
z
" transform="scale(0.015625)"/>
        <path id="DejaVuSans-6f" d="M 1959 3097 
Q 1497 3097 1228 2736 
Q 959 2375 959 1747 
Q 959 1119 1226 758 
Q 1494 397 1959 397 
Q 2419 397 2687 759 
Q 2956 1122 2956 1747 
Q 2956 2369 2687 2733 
Q 2419 3097 1959 3097 
z
M 1959 3584 
Q 2709 3584 3137 3096 
Q 3566 2609 3566 1747 
Q 3566 888 3137 398 
Q 2709 -91 1959 -91 
Q 1206 -91 779 398 
Q 353 888 353 1747 
Q 353 2609 779 3096 
Q 1206 3584 1959 3584 
z
" transform="scale(0.015625)"/>
        <path id="DejaVuSans-62" d="M 3116 1747 
Q 3116 2381 2855 2742 
Q 2594 3103 2138 3103 
Q 1681 3103 1420 2742 
Q 1159 2381 1159 1747 
Q 1159 1113 1420 752 
Q 1681 391 2138 391 
Q 2594 391 2855 752 
Q 3116 1113 3116 1747 
z
M 1159 2969 
Q 1341 3281 1617 3432 
Q 1894 3584 2278 3584 
Q 2916 3584 3314 3078 
Q 3713 2572 3713 1747 
Q 3713 922 3314 415 
Q 2916 -91 2278 -91 
Q 1894 -91 1617 61 
Q 1341 213 1159 525 
L 1159 0 
L 581 0 
L 581 4863 
L 1159 4863 
L 1159 2969 
z
" transform="scale(0.015625)"/>
        <path id="DejaVuSans-61" d="M 2194 1759 
Q 1497 1759 1228 1600 
Q 959 1441 959 1056 
Q 959 750 1161 570 
Q 1363 391 1709 391 
Q 2188 391 2477 730 
Q 2766 1069 2766 1631 
L 2766 1759 
L 2194 1759 
z
M 3341 1997 
L 3341 0 
L 2766 0 
L 2766 531 
Q 2569 213 2275 61 
Q 1981 -91 1556 -91 
Q 1019 -91 701 211 
Q 384 513 384 1019 
Q 384 1609 779 1909 
Q 1175 2209 1959 2209 
L 2766 2209 
L 2766 2266 
Q 2766 2663 2505 2880 
Q 2244 3097 1772 3097 
Q 1472 3097 1187 3025 
Q 903 2953 641 2809 
L 641 3341 
Q 956 3463 1253 3523 
Q 1550 3584 1831 3584 
Q 2591 3584 2966 3190 
Q 3341 2797 3341 1997 
z
" transform="scale(0.015625)"/>
        <path id="DejaVuSans-63" d="M 3122 3366 
L 3122 2828 
Q 2878 2963 2633 3030 
Q 2388 3097 2138 3097 
Q 1578 3097 1268 2742 
Q 959 2388 959 1747 
Q 959 1106 1268 751 
Q 1578 397 2138 397 
Q 2388 397 2633 464 
Q 2878 531 3122 666 
L 3122 134 
Q 2881 22 2623 -34 
Q 2366 -91 2075 -91 
Q 1284 -91 818 406 
Q 353 903 353 1747 
Q 353 2603 823 3093 
Q 1294 3584 2113 3584 
Q 2378 3584 2631 3529 
Q 2884 3475 3122 3366 
z
" transform="scale(0.015625)"/>
        <path id="DejaVuSans-74" d="M 1172 4494 
L 1172 3500 
L 2356 3500 
L 2356 3053 
L 1172 3053 
L 1172 1153 
Q 1172 725 1289 603 
Q 1406 481 1766 481 
L 2356 481 
L 2356 0 
L 1766 0 
Q 1100 0 847 248 
Q 594 497 594 1153 
L 594 3053 
L 172 3053 
L 172 3500 
L 594 3500 
L 594 4494 
L 1172 4494 
z
" transform="scale(0.015625)"/>
        <path id="DejaVuSans-65" d="M 3597 1894 
L 3597 1613 
L 953 1613 
Q 991 1019 1311 708 
Q 1631 397 2203 397 
Q 2534 397 2845 478 
Q 3156 559 3463 722 
L 3463 178 
Q 3153 47 2828 -22 
Q 2503 -91 2169 -91 
Q 1331 -91 842 396 
Q 353 884 353 1716 
Q 353 2575 817 3079 
Q 1281 3584 2069 3584 
Q 2775 3584 3186 3129 
Q 3597 2675 3597 1894 
z
M 3022 2063 
Q 3016 2534 2758 2815 
Q 2500 3097 2075 3097 
Q 1594 3097 1305 2825 
Q 1016 2553 972 2059 
L 3022 2063 
z
" transform="scale(0.015625)"/>
        <path id="DejaVuSans-72" d="M 2631 2963 
Q 2534 3019 2420 3045 
Q 2306 3072 2169 3072 
Q 1681 3072 1420 2755 
Q 1159 2438 1159 1844 
L 1159 0 
L 581 0 
L 581 3500 
L 1159 3500 
L 1159 2956 
Q 1341 3275 1631 3429 
Q 1922 3584 2338 3584 
Q 2397 3584 2469 3576 
Q 2541 3569 2628 3553 
L 2631 2963 
z
" transform="scale(0.015625)"/>
        <path id="DejaVuSans-75" d="M 544 1381 
L 544 3500 
L 1119 3500 
L 1119 1403 
Q 1119 906 1312 657 
Q 1506 409 1894 409 
Q 2359 409 2629 706 
Q 2900 1003 2900 1516 
L 2900 3500 
L 3475 3500 
L 3475 0 
L 2900 0 
L 2900 538 
Q 2691 219 2414 64 
Q 2138 -91 1772 -91 
Q 1169 -91 856 284 
Q 544 659 544 1381 
z
M 1991 3584 
L 1991 3584 
z
" transform="scale(0.015625)"/>
        <path id="DejaVuSans-6d" d="M 3328 2828 
Q 3544 3216 3844 3400 
Q 4144 3584 4550 3584 
Q 5097 3584 5394 3201 
Q 5691 2819 5691 2113 
L 5691 0 
L 5113 0 
L 5113 2094 
Q 5113 2597 4934 2840 
Q 4756 3084 4391 3084 
Q 3944 3084 3684 2787 
Q 3425 2491 3425 1978 
L 3425 0 
L 2847 0 
L 2847 2094 
Q 2847 2600 2669 2842 
Q 2491 3084 2119 3084 
Q 1678 3084 1418 2786 
Q 1159 2488 1159 1978 
L 1159 0 
L 581 0 
L 581 3500 
L 1159 3500 
L 1159 2956 
Q 1356 3278 1631 3431 
Q 1906 3584 2284 3584 
Q 2666 3584 2933 3390 
Q 3200 3197 3328 2828 
z
" transform="scale(0.015625)"/>
       </defs>
       <use xlink:href="#DejaVuSans-42"/>
       <use xlink:href="#DejaVuSans-69" transform="translate(68.603516 0)"/>
       <use xlink:href="#DejaVuSans-66" transform="translate(96.386719 0)"/>
       <use xlink:href="#DejaVuSans-69" transform="translate(131.591797 0)"/>
       <use xlink:href="#DejaVuSans-64" transform="translate(159.375 0)"/>
       <use xlink:href="#DejaVuSans-6f" transform="translate(222.851562 0)"/>
       <use xlink:href="#DejaVuSans-62" transform="translate(284.033203 0)"/>
       <use xlink:href="#DejaVuSans-61" transform="translate(347.509766 0)"/>
       <use xlink:href="#DejaVuSans-63" transform="translate(408.789062 0)"/>
       <use xlink:href="#DejaVuSans-74" transform="translate(463.769531 0)"/>
       <use xlink:href="#DejaVuSans-65" transform="translate(502.978516 0)"/>
       <use xlink:href="#DejaVuSans-72" transform="translate(564.501953 0)"/>
       <use xlink:href="#DejaVuSans-69" transform="translate(605.615234 0)"/>
       <use xlink:href="#DejaVuSans-75" transform="translate(633.398438 0)"/>
       <use xlink:href="#DejaVuSans-6d" transform="translate(696.777344 0)"/>
      </g>
     </g>
    </g>
    <g id="xtick_2">
     <g id="line2d_2">
      <g>
       <use xlink:href="#m4cf7c02e86" x="227.090625" y="299.518125" style="stroke: #000000; stroke-width: 0.8"/>
      </g>
     </g>
     <g id="text_2">
      <!-- Lactobacillus -->
      <g transform="translate(194.54375 314.116563) scale(0.1 -0.1)">
       <defs>
        <path id="DejaVuSans-4c" d="M 628 4666 
L 1259 4666 
L 1259 531 
L 3531 531 
L 3531 0 
L 628 0 
L 628 4666 
z
" transform="scale(0.015625)"/>
        <path id="DejaVuSans-6c" d="M 603 4863 
L 1178 4863 
L 1178 0 
L 603 0 
L 603 4863 
z
" transform="scale(0.015625)"/>
        <path id="DejaVuSans-73" d="M 2834 3397 
L 2834 2853 
Q 2591 2978 2328 3040 
Q 2066 3103 1784 3103 
Q 1356 3103 1142 2972 
Q 928 2841 928 2578 
Q 928 2378 1081 2264 
Q 1234 2150 1697 2047 
L 1894 2003 
Q 2506 1872 2764 1633 
Q 3022 1394 3022 966 
Q 3022 478 2636 193 
Q 2250 -91 1575 -91 
Q 1294 -91 989 -36 
Q 684 19 347 128 
L 347 722 
Q 666 556 975 473 
Q 1284 391 1588 391 
Q 1994 391 2212 530 
Q 2431 669 2431 922 
Q 2431 1156 2273 1281 
Q 2116 1406 1581 1522 
L 1381 1569 
Q 847 1681 609 1914 
Q 372 2147 372 2553 
Q 372 3047 722 3315 
Q 1072 3584 1716 3584 
Q 2034 3584 2315 3537 
Q 2597 3491 2834 3397 
z
" transform="scale(0.015625)"/>
       </defs>
       <use xlink:href="#DejaVuSans-4c"/>
       <use xlink:href="#DejaVuSans-61" transform="translate(55.712891 0)"/>
       <use xlink:href="#DejaVuSans-63" transform="translate(116.992188 0)"/>
       <use xlink:href="#DejaVuSans-74" transform="translate(171.972656 0)"/>
       <use xlink:href="#DejaVuSans-6f" transform="translate(211.181641 0)"/>
       <use xlink:href="#DejaVuSans-62" transform="translate(272.363281 0)"/>
       <use xlink:href="#DejaVuSans-61" transform="translate(335.839844 0)"/>
       <use xlink:href="#DejaVuSans-63" transform="translate(397.119141 0)"/>
       <use xlink:href="#DejaVuSans-69" transform="translate(452.099609 0)"/>
       <use xlink:href="#DejaVuSans-6c" transform="translate(479.882812 0)"/>
       <use xlink:href="#DejaVuSans-6c" transform="translate(507.666016 0)"/>
       <use xlink:href="#DejaVuSans-75" transform="translate(535.449219 0)"/>
       <use xlink:href="#DejaVuSans-73" transform="translate(598.828125 0)"/>
      </g>
     </g>
    </g>
    <g id="xtick_3">
     <g id="line2d_3">
      <g>
       <use xlink:href="#m4cf7c02e86" x="338.690625" y="299.518125" style="stroke: #000000; stroke-width: 0.8"/>
      </g>
     </g>
     <g id="text_3">
      <!-- Bacteroides -->
      <g transform="translate(309.163281 314.116563) scale(0.1 -0.1)">
       <use xlink:href="#DejaVuSans-42"/>
       <use xlink:href="#DejaVuSans-61" transform="translate(68.603516 0)"/>
       <use xlink:href="#DejaVuSans-63" transform="translate(129.882812 0)"/>
       <use xlink:href="#DejaVuSans-74" transform="translate(184.863281 0)"/>
       <use xlink:href="#DejaVuSans-65" transform="translate(224.072266 0)"/>
       <use xlink:href="#DejaVuSans-72" transform="translate(285.595703 0)"/>
       <use xlink:href="#DejaVuSans-6f" transform="translate(324.458984 0)"/>
       <use xlink:href="#DejaVuSans-69" transform="translate(385.640625 0)"/>
       <use xlink:href="#DejaVuSans-64" transform="translate(413.423828 0)"/>
       <use xlink:href="#DejaVuSans-65" transform="translate(476.900391 0)"/>
       <use xlink:href="#DejaVuSans-73" transform="translate(538.423828 0)"/>
      </g>
     </g>
    </g>
    <g id="xtick_4">
     <g id="line2d_4">
      <g>
       <use xlink:href="#m4cf7c02e86" x="450.290625" y="299.518125" style="stroke: #000000; stroke-width: 0.8"/>
      </g>
     </g>
     <g id="text_4">
      <!-- Prevotella -->
      <g transform="translate(425.446094 314.116563) scale(0.1 -0.1)">
       <defs>
        <path id="DejaVuSans-50" d="M 1259 4147 
L 1259 2394 
L 2053 2394 
Q 2494 2394 2734 2622 
Q 2975 2850 2975 3272 
Q 2975 3691 2734 3919 
Q 2494 4147 2053 4147 
L 1259 4147 
z
M 628 4666 
L 2053 4666 
Q 2838 4666 3239 4311 
Q 3641 3956 3641 3272 
Q 3641 2581 3239 2228 
Q 2838 1875 2053 1875 
L 1259 1875 
L 1259 0 
L 628 0 
L 628 4666 
z
" transform="scale(0.015625)"/>
        <path id="DejaVuSans-76" d="M 191 3500 
L 800 3500 
L 1894 563 
L 2988 3500 
L 3597 3500 
L 2284 0 
L 1503 0 
L 191 3500 
z
" transform="scale(0.015625)"/>
       </defs>
       <use xlink:href="#DejaVuSans-50"/>
       <use xlink:href="#DejaVuSans-72" transform="translate(58.552734 0)"/>
       <use xlink:href="#DejaVuSans-65" transform="translate(97.416016 0)"/>
       <use xlink:href="#DejaVuSans-76" transform="translate(158.939453 0)"/>
       <use xlink:href="#DejaVuSans-6f" transform="translate(218.119141 0)"/>
       <use xlink:href="#DejaVuSans-74" transform="translate(279.300781 0)"/>
       <use xlink:href="#DejaVuSans-65" transform="translate(318.509766 0)"/>
       <use xlink:href="#DejaVuSans-6c" transform="translate(380.033203 0)"/>
       <use xlink:href="#DejaVuSans-6c" transform="translate(407.816406 0)"/>
       <use xlink:href="#DejaVuSans-61" transform="translate(435.599609 0)"/>
      </g>
     </g>
    </g>
    <g id="xtick_5">
     <g id="line2d_5">
      <g>
       <use xlink:href="#m4cf7c02e86" x="561.890625" y="299.518125" style="stroke: #000000; stroke-width: 0.8"/>
      </g>
     </g>
     <g id="text_5">
      <!-- Escherichia -->
      <g transform="translate(533.316406 314.116563) scale(0.1 -0.1)">
       <defs>
        <path id="DejaVuSans-45" d="M 628 4666 
L 3578 4666 
L 3578 4134 
L 1259 4134 
L 1259 2753 
L 3481 2753 
L 3481 2222 
L 1259 2222 
L 1259 531 
L 3634 531 
L 3634 0 
L 628 0 
L 628 4666 
z
" transform="scale(0.015625)"/>
        <path id="DejaVuSans-68" d="M 3513 2113 
L 3513 0 
L 2938 0 
L 2938 2094 
Q 2938 2591 2744 2837 
Q 2550 3084 2163 3084 
Q 1697 3084 1428 2787 
Q 1159 2491 1159 1978 
L 1159 0 
L 581 0 
L 581 4863 
L 1159 4863 
L 1159 2956 
Q 1366 3272 1645 3428 
Q 1925 3584 2291 3584 
Q 2894 3584 3203 3211 
Q 3513 2838 3513 2113 
z
" transform="scale(0.015625)"/>
       </defs>
       <use xlink:href="#DejaVuSans-45"/>
       <use xlink:href="#DejaVuSans-73" transform="translate(63.183594 0)"/>
       <use xlink:href="#DejaVuSans-63" transform="translate(115.283203 0)"/>
       <use xlink:href="#DejaVuSans-68" transform="translate(170.263672 0)"/>
       <use xlink:href="#DejaVuSans-65" transform="translate(233.642578 0)"/>
       <use xlink:href="#DejaVuSans-72" transform="translate(295.166016 0)"/>
       <use xlink:href="#DejaVuSans-69" transform="translate(336.279297 0)"/>
       <use xlink:href="#DejaVuSans-63" transform="translate(364.0625 0)"/>
       <use xlink:href="#DejaVuSans-68" transform="translate(419.042969 0)"/>
       <use xlink:href="#DejaVuSans-69" transform="translate(482.421875 0)"/>
       <use xlink:href="#DejaVuSans-61" transform="translate(510.205078 0)"/>
      </g>
     </g>
    </g>
    <g id="xtick_6">
     <g id="line2d_6">
      <g>
       <use xlink:href="#m4cf7c02e86" x="673.490625" y="299.518125" style="stroke: #000000; stroke-width: 0.8"/>
      </g>
     </g>
     <g id="text_6">
      <!-- Klebsiella -->
      <g transform="translate(649.659375 314.116563) scale(0.1 -0.1)">
       <defs>
        <path id="DejaVuSans-4b" d="M 628 4666 
L 1259 4666 
L 1259 2694 
L 3353 4666 
L 4166 4666 
L 1850 2491 
L 4331 0 
L 3500 0 
L 1259 2247 
L 1259 0 
L 628 0 
L 628 4666 
z
" transform="scale(0.015625)"/>
       </defs>
       <use xlink:href="#DejaVuSans-4b"/>
       <use xlink:href="#DejaVuSans-6c" transform="translate(65.576172 0)"/>
       <use xlink:href="#DejaVuSans-65" transform="translate(93.359375 0)"/>
       <use xlink:href="#DejaVuSans-62" transform="translate(154.882812 0)"/>
       <use xlink:href="#DejaVuSans-73" transform="translate(218.359375 0)"/>
       <use xlink:href="#DejaVuSans-69" transform="translate(270.458984 0)"/>
       <use xlink:href="#DejaVuSans-65" transform="translate(298.242188 0)"/>
       <use xlink:href="#DejaVuSans-6c" transform="translate(359.765625 0)"/>
       <use xlink:href="#DejaVuSans-6c" transform="translate(387.548828 0)"/>
       <use xlink:href="#DejaVuSans-61" transform="translate(415.332031 0)"/>
      </g>
     </g>
    </g>
    <g id="text_7">
     <!-- Bacteria -->
     <g transform="translate(373.701563 327.794688) scale(0.1 -0.1)">
      <use xlink:href="#DejaVuSans-42"/>
      <use xlink:href="#DejaVuSans-61" transform="translate(68.603516 0)"/>
      <use xlink:href="#DejaVuSans-63" transform="translate(129.882812 0)"/>
      <use xlink:href="#DejaVuSans-74" transform="translate(184.863281 0)"/>
      <use xlink:href="#DejaVuSans-65" transform="translate(224.072266 0)"/>
      <use xlink:href="#DejaVuSans-72" transform="translate(285.595703 0)"/>
      <use xlink:href="#DejaVuSans-69" transform="translate(326.708984 0)"/>
      <use xlink:href="#DejaVuSans-61" transform="translate(354.492188 0)"/>
     </g>
    </g>
   </g>
   <g id="matplotlib.axis_2">
    <g id="ytick_1">
     <g id="line2d_7">
      <defs>
       <path id="m5c15831f6a" d="M 0 0 
L -3.5 0 
" style="stroke: #000000; stroke-width: 0.8"/>
      </defs>
      <g>
       <use xlink:href="#m5c15831f6a" x="59.690625" y="279.064345" style="stroke: #000000; stroke-width: 0.8"/>
      </g>
     </g>
     <g id="text_8">
      <!-- 0 -->
      <g transform="translate(46.328125 282.863564) scale(0.1 -0.1)">
       <defs>
        <path id="DejaVuSans-30" d="M 2034 4250 
Q 1547 4250 1301 3770 
Q 1056 3291 1056 2328 
Q 1056 1369 1301 889 
Q 1547 409 2034 409 
Q 2525 409 2770 889 
Q 3016 1369 3016 2328 
Q 3016 3291 2770 3770 
Q 2525 4250 2034 4250 
z
M 2034 4750 
Q 2819 4750 3233 4129 
Q 3647 3509 3647 2328 
Q 3647 1150 3233 529 
Q 2819 -91 2034 -91 
Q 1250 -91 836 529 
Q 422 1150 422 2328 
Q 422 3509 836 4129 
Q 1250 4750 2034 4750 
z
" transform="scale(0.015625)"/>
       </defs>
       <use xlink:href="#DejaVuSans-30"/>
      </g>
     </g>
    </g>
    <g id="ytick_2">
     <g id="line2d_8">
      <g>
       <use xlink:href="#m5c15831f6a" x="59.690625" y="234.389831" style="stroke: #000000; stroke-width: 0.8"/>
      </g>
     </g>
     <g id="text_9">
      <!-- 5000 -->
      <g transform="translate(27.240625 238.18905) scale(0.1 -0.1)">
       <defs>
        <path id="DejaVuSans-35" d="M 691 4666 
L 3169 4666 
L 3169 4134 
L 1269 4134 
L 1269 2991 
Q 1406 3038 1543 3061 
Q 1681 3084 1819 3084 
Q 2600 3084 3056 2656 
Q 3513 2228 3513 1497 
Q 3513 744 3044 326 
Q 2575 -91 1722 -91 
Q 1428 -91 1123 -41 
Q 819 9 494 109 
L 494 744 
Q 775 591 1075 516 
Q 1375 441 1709 441 
Q 2250 441 2565 725 
Q 2881 1009 2881 1497 
Q 2881 1984 2565 2268 
Q 2250 2553 1709 2553 
Q 1456 2553 1204 2497 
Q 953 2441 691 2322 
L 691 4666 
z
" transform="scale(0.015625)"/>
       </defs>
       <use xlink:href="#DejaVuSans-35"/>
       <use xlink:href="#DejaVuSans-30" transform="translate(63.623047 0)"/>
       <use xlink:href="#DejaVuSans-30" transform="translate(127.246094 0)"/>
       <use xlink:href="#DejaVuSans-30" transform="translate(190.869141 0)"/>
      </g>
     </g>
    </g>
    <g id="ytick_3">
     <g id="line2d_9">
      <g>
       <use xlink:href="#m5c15831f6a" x="59.690625" y="189.715317" style="stroke: #000000; stroke-width: 0.8"/>
      </g>
     </g>
     <g id="text_10">
      <!-- 10000 -->
      <g transform="translate(20.878125 193.514536) scale(0.1 -0.1)">
       <defs>
        <path id="DejaVuSans-31" d="M 794 531 
L 1825 531 
L 1825 4091 
L 703 3866 
L 703 4441 
L 1819 4666 
L 2450 4666 
L 2450 531 
L 3481 531 
L 3481 0 
L 794 0 
L 794 531 
z
" transform="scale(0.015625)"/>
       </defs>
       <use xlink:href="#DejaVuSans-31"/>
       <use xlink:href="#DejaVuSans-30" transform="translate(63.623047 0)"/>
       <use xlink:href="#DejaVuSans-30" transform="translate(127.246094 0)"/>
       <use xlink:href="#DejaVuSans-30" transform="translate(190.869141 0)"/>
       <use xlink:href="#DejaVuSans-30" transform="translate(254.492188 0)"/>
      </g>
     </g>
    </g>
    <g id="ytick_4">
     <g id="line2d_10">
      <g>
       <use xlink:href="#m5c15831f6a" x="59.690625" y="145.040803" style="stroke: #000000; stroke-width: 0.8"/>
      </g>
     </g>
     <g id="text_11">
      <!-- 15000 -->
      <g transform="translate(20.878125 148.840021) scale(0.1 -0.1)">
       <use xlink:href="#DejaVuSans-31"/>
       <use xlink:href="#DejaVuSans-35" transform="translate(63.623047 0)"/>
       <use xlink:href="#DejaVuSans-30" transform="translate(127.246094 0)"/>
       <use xlink:href="#DejaVuSans-30" transform="translate(190.869141 0)"/>
       <use xlink:href="#DejaVuSans-30" transform="translate(254.492188 0)"/>
      </g>
     </g>
    </g>
    <g id="ytick_5">
     <g id="line2d_11">
      <g>
       <use xlink:href="#m5c15831f6a" x="59.690625" y="100.366288" style="stroke: #000000; stroke-width: 0.8"/>
      </g>
     </g>
     <g id="text_12">
      <!-- 20000 -->
      <g transform="translate(20.878125 104.165507) scale(0.1 -0.1)">
       <defs>
        <path id="DejaVuSans-32" d="M 1228 531 
L 3431 531 
L 3431 0 
L 469 0 
L 469 531 
Q 828 903 1448 1529 
Q 2069 2156 2228 2338 
Q 2531 2678 2651 2914 
Q 2772 3150 2772 3378 
Q 2772 3750 2511 3984 
Q 2250 4219 1831 4219 
Q 1534 4219 1204 4116 
Q 875 4013 500 3803 
L 500 4441 
Q 881 4594 1212 4672 
Q 1544 4750 1819 4750 
Q 2544 4750 2975 4387 
Q 3406 4025 3406 3419 
Q 3406 3131 3298 2873 
Q 3191 2616 2906 2266 
Q 2828 2175 2409 1742 
Q 1991 1309 1228 531 
z
" transform="scale(0.015625)"/>
       </defs>
       <use xlink:href="#DejaVuSans-32"/>
       <use xlink:href="#DejaVuSans-30" transform="translate(63.623047 0)"/>
       <use xlink:href="#DejaVuSans-30" transform="translate(127.246094 0)"/>
       <use xlink:href="#DejaVuSans-30" transform="translate(190.869141 0)"/>
       <use xlink:href="#DejaVuSans-30" transform="translate(254.492188 0)"/>
      </g>
     </g>
    </g>
    <g id="ytick_6">
     <g id="line2d_12">
      <g>
       <use xlink:href="#m5c15831f6a" x="59.690625" y="55.691774" style="stroke: #000000; stroke-width: 0.8"/>
      </g>
     </g>
     <g id="text_13">
      <!-- 25000 -->
      <g transform="translate(20.878125 59.490993) scale(0.1 -0.1)">
       <use xlink:href="#DejaVuSans-32"/>
       <use xlink:href="#DejaVuSans-35" transform="translate(63.623047 0)"/>
       <use xlink:href="#DejaVuSans-30" transform="translate(127.246094 0)"/>
       <use xlink:href="#DejaVuSans-30" transform="translate(190.869141 0)"/>
       <use xlink:href="#DejaVuSans-30" transform="translate(254.492188 0)"/>
      </g>
     </g>
    </g>
    <g id="text_14">
     <!-- Raw Bacteria Count -->
     <g transform="translate(14.798438 210.248594) rotate(-90) scale(0.1 -0.1)">
      <defs>
       <path id="DejaVuSans-52" d="M 2841 2188 
Q 3044 2119 3236 1894 
Q 3428 1669 3622 1275 
L 4263 0 
L 3584 0 
L 2988 1197 
Q 2756 1666 2539 1819 
Q 2322 1972 1947 1972 
L 1259 1972 
L 1259 0 
L 628 0 
L 628 4666 
L 2053 4666 
Q 2853 4666 3247 4331 
Q 3641 3997 3641 3322 
Q 3641 2881 3436 2590 
Q 3231 2300 2841 2188 
z
M 1259 4147 
L 1259 2491 
L 2053 2491 
Q 2509 2491 2742 2702 
Q 2975 2913 2975 3322 
Q 2975 3731 2742 3939 
Q 2509 4147 2053 4147 
L 1259 4147 
z
" transform="scale(0.015625)"/>
       <path id="DejaVuSans-77" d="M 269 3500 
L 844 3500 
L 1563 769 
L 2278 3500 
L 2956 3500 
L 3675 769 
L 4391 3500 
L 4966 3500 
L 4050 0 
L 3372 0 
L 2619 2869 
L 1863 0 
L 1184 0 
L 269 3500 
z
" transform="scale(0.015625)"/>
       <path id="DejaVuSans-20" transform="scale(0.015625)"/>
       <path id="DejaVuSans-43" d="M 4122 4306 
L 4122 3641 
Q 3803 3938 3442 4084 
Q 3081 4231 2675 4231 
Q 1875 4231 1450 3742 
Q 1025 3253 1025 2328 
Q 1025 1406 1450 917 
Q 1875 428 2675 428 
Q 3081 428 3442 575 
Q 3803 722 4122 1019 
L 4122 359 
Q 3791 134 3420 21 
Q 3050 -91 2638 -91 
Q 1578 -91 968 557 
Q 359 1206 359 2328 
Q 359 3453 968 4101 
Q 1578 4750 2638 4750 
Q 3056 4750 3426 4639 
Q 3797 4528 4122 4306 
z
" transform="scale(0.015625)"/>
       <path id="DejaVuSans-6e" d="M 3513 2113 
L 3513 0 
L 2938 0 
L 2938 2094 
Q 2938 2591 2744 2837 
Q 2550 3084 2163 3084 
Q 1697 3084 1428 2787 
Q 1159 2491 1159 1978 
L 1159 0 
L 581 0 
L 581 3500 
L 1159 3500 
L 1159 2956 
Q 1366 3272 1645 3428 
Q 1925 3584 2291 3584 
Q 2894 3584 3203 3211 
Q 3513 2838 3513 2113 
z
" transform="scale(0.015625)"/>
      </defs>
      <use xlink:href="#DejaVuSans-52"/>
      <use xlink:href="#DejaVuSans-61" transform="translate(67.232422 0)"/>
      <use xlink:href="#DejaVuSans-77" transform="translate(128.511719 0)"/>
      <use xlink:href="#DejaVuSans-20" transform="translate(210.298828 0)"/>
      <use xlink:href="#DejaVuSans-42" transform="translate(242.085938 0)"/>
      <use xlink:href="#DejaVuSans-61" transform="translate(310.689453 0)"/>
      <use xlink:href="#DejaVuSans-63" transform="translate(371.96875 0)"/>
      <use xlink:href="#DejaVuSans-74" transform="translate(426.949219 0)"/>
      <use xlink:href="#DejaVuSans-65" transform="translate(466.158203 0)"/>
      <use xlink:href="#DejaVuSans-72" transform="translate(527.681641 0)"/>
      <use xlink:href="#DejaVuSans-69" transform="translate(568.794922 0)"/>
      <use xlink:href="#DejaVuSans-61" transform="translate(596.578125 0)"/>
      <use xlink:href="#DejaVuSans-20" transform="translate(657.857422 0)"/>
      <use xlink:href="#DejaVuSans-43" transform="translate(689.644531 0)"/>
      <use xlink:href="#DejaVuSans-6f" transform="translate(759.46875 0)"/>
      <use xlink:href="#DejaVuSans-75" transform="translate(820.650391 0)"/>
      <use xlink:href="#DejaVuSans-6e" transform="translate(884.029297 0)"/>
      <use xlink:href="#DejaVuSans-74" transform="translate(947.408203 0)"/>
     </g>
    </g>
   </g>
   <g id="patch_5">
    <path d="M 70.850625 272.733967 
L 115.490625 272.733967 
L 115.490625 266.256162 
L 70.850625 266.256162 
L 70.850625 272.733967 
z
" clip-path="url(#pd0e45f7ea0)" style="fill: #d25d51; stroke: #4b4b4b; stroke-linejoin: miter"/>
   </g>
   <g id="line2d_13">
    <path d="M 93.170625 272.733967 
L 93.170625 274.945355 
" clip-path="url(#pd0e45f7ea0)" style="fill: none; stroke: #4b4b4b"/>
   </g>
   <g id="line2d_14">
    <path d="M 93.170625 266.256162 
L 93.170625 260.354659 
" clip-path="url(#pd0e45f7ea0)" style="fill: none; stroke: #4b4b4b"/>
   </g>
   <g id="line2d_15">
    <path d="M 82.010625 274.945355 
L 104.330625 274.945355 
" clip-path="url(#pd0e45f7ea0)" style="fill: none; stroke: #4b4b4b; stroke-linecap: square"/>
   </g>
   <g id="line2d_16">
    <path d="M 82.010625 260.354659 
L 104.330625 260.354659 
" clip-path="url(#pd0e45f7ea0)" style="fill: none; stroke: #4b4b4b; stroke-linecap: square"/>
   </g>
   <g id="line2d_17"/>
   <g id="patch_6">
    <path d="M 182.450625 267.122848 
L 227.090625 267.122848 
L 227.090625 240.007651 
L 182.450625 240.007651 
L 182.450625 267.122848 
z
" clip-path="url(#pd0e45f7ea0)" style="fill: #d25d51; stroke: #4b4b4b; stroke-linejoin: miter"/>
   </g>
   <g id="line2d_18">
    <path d="M 204.770625 267.122848 
L 204.770625 283.049312 
" clip-path="url(#pd0e45f7ea0)" style="fill: none; stroke: #4b4b4b"/>
   </g>
   <g id="line2d_19">
    <path d="M 204.770625 240.007651 
L 204.770625 204.690214 
" clip-path="url(#pd0e45f7ea0)" style="fill: none; stroke: #4b4b4b"/>
   </g>
   <g id="line2d_20">
    <path d="M 193.610625 283.049312 
L 215.930625 283.049312 
" clip-path="url(#pd0e45f7ea0)" style="fill: none; stroke: #4b4b4b; stroke-linecap: square"/>
   </g>
   <g id="line2d_21">
    <path d="M 193.610625 204.690214 
L 215.930625 204.690214 
" clip-path="url(#pd0e45f7ea0)" style="fill: none; stroke: #4b4b4b; stroke-linecap: square"/>
   </g>
   <g id="line2d_22"/>
   <g id="patch_7">
    <path d="M 294.050625 235.698794 
L 338.690625 235.698794 
L 338.690625 197.231804 
L 294.050625 197.231804 
L 294.050625 235.698794 
z
" clip-path="url(#pd0e45f7ea0)" style="fill: #d25d51; stroke: #4b4b4b; stroke-linejoin: miter"/>
   </g>
   <g id="line2d_23">
    <path d="M 316.370625 235.698794 
L 316.370625 252.4294 
" clip-path="url(#pd0e45f7ea0)" style="fill: none; stroke: #4b4b4b"/>
   </g>
   <g id="line2d_24">
    <path d="M 316.370625 197.231804 
L 316.370625 166.770486 
" clip-path="url(#pd0e45f7ea0)" style="fill: none; stroke: #4b4b4b"/>
   </g>
   <g id="line2d_25">
    <path d="M 305.210625 252.4294 
L 327.530625 252.4294 
" clip-path="url(#pd0e45f7ea0)" style="fill: none; stroke: #4b4b4b; stroke-linecap: square"/>
   </g>
   <g id="line2d_26">
    <path d="M 305.210625 166.770486 
L 327.530625 166.770486 
" clip-path="url(#pd0e45f7ea0)" style="fill: none; stroke: #4b4b4b; stroke-linecap: square"/>
   </g>
   <g id="line2d_27"/>
   <g id="patch_8">
    <path d="M 405.650625 115.405964 
L 450.290625 115.405964 
L 450.290625 84.614055 
L 405.650625 84.614055 
L 405.650625 115.405964 
z
" clip-path="url(#pd0e45f7ea0)" style="fill: #d25d51; stroke: #4b4b4b; stroke-linejoin: miter"/>
   </g>
   <g id="line2d_28">
    <path d="M 427.970625 115.405964 
L 427.970625 154.029315 
" clip-path="url(#pd0e45f7ea0)" style="fill: none; stroke: #4b4b4b"/>
   </g>
   <g id="line2d_29">
    <path d="M 427.970625 84.614055 
L 427.970625 45.345157 
" clip-path="url(#pd0e45f7ea0)" style="fill: none; stroke: #4b4b4b"/>
   </g>
   <g id="line2d_30">
    <path d="M 416.810625 154.029315 
L 439.130625 154.029315 
" clip-path="url(#pd0e45f7ea0)" style="fill: none; stroke: #4b4b4b; stroke-linecap: square"/>
   </g>
   <g id="line2d_31">
    <path d="M 416.810625 45.345157 
L 439.130625 45.345157 
" clip-path="url(#pd0e45f7ea0)" style="fill: none; stroke: #4b4b4b; stroke-linecap: square"/>
   </g>
   <g id="line2d_32">
    <defs>
     <path id="mcb1ecfb57d" d="M 0 3 
C 0.795609 3 1.55874 2.683901 2.12132 2.12132 
C 2.683901 1.55874 3 0.795609 3 0 
C 3 -0.795609 2.683901 -1.55874 2.12132 -2.12132 
C 1.55874 -2.683901 0.795609 -3 0 -3 
C -0.795609 -3 -1.55874 -2.683901 -2.12132 -2.12132 
C -2.683901 -1.55874 -3 -0.795609 -3 0 
C -3 0.795609 -2.683901 1.55874 -2.12132 2.12132 
C -1.55874 2.683901 -0.795609 3 0 3 
z
" style="stroke: #4b4b4b"/>
    </defs>
    <g clip-path="url(#pd0e45f7ea0)">
     <use xlink:href="#mcb1ecfb57d" x="427.970625" y="174.811899" style="fill-opacity: 0; stroke: #4b4b4b"/>
     <use xlink:href="#mcb1ecfb57d" x="427.970625" y="34.918125" style="fill-opacity: 0; stroke: #4b4b4b"/>
    </g>
   </g>
   <g id="patch_9">
    <path d="M 517.250625 257.85512 
L 561.890625 257.85512 
L 561.890625 247.910573 
L 517.250625 247.910573 
L 517.250625 257.85512 
z
" clip-path="url(#pd0e45f7ea0)" style="fill: #d25d51; stroke: #4b4b4b; stroke-linejoin: miter"/>
   </g>
   <g id="line2d_33">
    <path d="M 539.570625 257.85512 
L 539.570625 264.375365 
" clip-path="url(#pd0e45f7ea0)" style="fill: none; stroke: #4b4b4b"/>
   </g>
   <g id="line2d_34">
    <path d="M 539.570625 247.910573 
L 539.570625 235.613913 
" clip-path="url(#pd0e45f7ea0)" style="fill: none; stroke: #4b4b4b"/>
   </g>
   <g id="line2d_35">
    <path d="M 528.410625 264.375365 
L 550.730625 264.375365 
" clip-path="url(#pd0e45f7ea0)" style="fill: none; stroke: #4b4b4b; stroke-linecap: square"/>
   </g>
   <g id="line2d_36">
    <path d="M 528.410625 235.613913 
L 550.730625 235.613913 
" clip-path="url(#pd0e45f7ea0)" style="fill: none; stroke: #4b4b4b; stroke-linecap: square"/>
   </g>
   <g id="line2d_37"/>
   <g id="patch_10">
    <path d="M 628.850625 243.03435 
L 673.490625 243.03435 
L 673.490625 230.188193 
L 628.850625 230.188193 
L 628.850625 243.03435 
z
" clip-path="url(#pd0e45f7ea0)" style="fill: #d25d51; stroke: #4b4b4b; stroke-linejoin: miter"/>
   </g>
   <g id="line2d_38">
    <path d="M 651.170625 243.03435 
L 651.170625 262.230988 
" clip-path="url(#pd0e45f7ea0)" style="fill: none; stroke: #4b4b4b"/>
   </g>
   <g id="line2d_39">
    <path d="M 651.170625 230.188193 
L 651.170625 215.001092 
" clip-path="url(#pd0e45f7ea0)" style="fill: none; stroke: #4b4b4b"/>
   </g>
   <g id="line2d_40">
    <path d="M 640.010625 262.230988 
L 662.330625 262.230988 
" clip-path="url(#pd0e45f7ea0)" style="fill: none; stroke: #4b4b4b; stroke-linecap: square"/>
   </g>
   <g id="line2d_41">
    <path d="M 640.010625 215.001092 
L 662.330625 215.001092 
" clip-path="url(#pd0e45f7ea0)" style="fill: none; stroke: #4b4b4b; stroke-linecap: square"/>
   </g>
   <g id="line2d_42">
    <g clip-path="url(#pd0e45f7ea0)">
     <use xlink:href="#mcb1ecfb57d" x="651.170625" y="264.312821" style="fill-opacity: 0; stroke: #4b4b4b"/>
     <use xlink:href="#mcb1ecfb57d" x="651.170625" y="265.242051" style="fill-opacity: 0; stroke: #4b4b4b"/>
     <use xlink:href="#mcb1ecfb57d" x="651.170625" y="199.08803" style="fill-opacity: 0; stroke: #4b4b4b"/>
     <use xlink:href="#mcb1ecfb57d" x="651.170625" y="201.000099" style="fill-opacity: 0; stroke: #4b4b4b"/>
    </g>
   </g>
   <g id="patch_11">
    <path d="M 115.490625 275.783002 
L 160.130625 275.783002 
L 160.130625 273.544809 
L 115.490625 273.544809 
L 115.490625 275.783002 
z
" clip-path="url(#pd0e45f7ea0)" style="fill: #42b874; stroke: #4b4b4b; stroke-linejoin: miter"/>
   </g>
   <g id="line2d_43">
    <path d="M 137.810625 275.783002 
L 137.810625 277.643696 
" clip-path="url(#pd0e45f7ea0)" style="fill: none; stroke: #4b4b4b"/>
   </g>
   <g id="line2d_44">
    <path d="M 137.810625 273.544809 
L 137.810625 270.629797 
" clip-path="url(#pd0e45f7ea0)" style="fill: none; stroke: #4b4b4b"/>
   </g>
   <g id="line2d_45">
    <path d="M 126.650625 277.643696 
L 148.970625 277.643696 
" clip-path="url(#pd0e45f7ea0)" style="fill: none; stroke: #4b4b4b; stroke-linecap: square"/>
   </g>
   <g id="line2d_46">
    <path d="M 126.650625 270.629797 
L 148.970625 270.629797 
" clip-path="url(#pd0e45f7ea0)" style="fill: none; stroke: #4b4b4b; stroke-linecap: square"/>
   </g>
   <g id="line2d_47"/>
   <g id="patch_12">
    <path d="M 227.090625 261.931669 
L 271.730625 261.931669 
L 271.730625 251.459963 
L 227.090625 251.459963 
L 227.090625 261.931669 
z
" clip-path="url(#pd0e45f7ea0)" style="fill: #42b874; stroke: #4b4b4b; stroke-linejoin: miter"/>
   </g>
   <g id="line2d_48">
    <path d="M 249.410625 261.931669 
L 249.410625 269.378911 
" clip-path="url(#pd0e45f7ea0)" style="fill: none; stroke: #4b4b4b"/>
   </g>
   <g id="line2d_49">
    <path d="M 249.410625 251.459963 
L 249.410625 239.161069 
" clip-path="url(#pd0e45f7ea0)" style="fill: none; stroke: #4b4b4b"/>
   </g>
   <g id="line2d_50">
    <path d="M 238.250625 269.378911 
L 260.570625 269.378911 
" clip-path="url(#pd0e45f7ea0)" style="fill: none; stroke: #4b4b4b; stroke-linecap: square"/>
   </g>
   <g id="line2d_51">
    <path d="M 238.250625 239.161069 
L 260.570625 239.161069 
" clip-path="url(#pd0e45f7ea0)" style="fill: none; stroke: #4b4b4b; stroke-linecap: square"/>
   </g>
   <g id="line2d_52">
    <g clip-path="url(#pd0e45f7ea0)">
     <use xlink:href="#mcb1ecfb57d" x="249.410625" y="279.931031" style="fill-opacity: 0; stroke: #4b4b4b"/>
     <use xlink:href="#mcb1ecfb57d" x="249.410625" y="229.055694" style="fill-opacity: 0; stroke: #4b4b4b"/>
    </g>
   </g>
   <g id="patch_13">
    <path d="M 338.690625 260.066508 
L 383.330625 260.066508 
L 383.330625 248.708013 
L 338.690625 248.708013 
L 338.690625 260.066508 
z
" clip-path="url(#pd0e45f7ea0)" style="fill: #42b874; stroke: #4b4b4b; stroke-linejoin: miter"/>
   </g>
   <g id="line2d_53">
    <path d="M 361.010625 260.066508 
L 361.010625 267.368558 
" clip-path="url(#pd0e45f7ea0)" style="fill: none; stroke: #4b4b4b"/>
   </g>
   <g id="line2d_54">
    <path d="M 361.010625 248.708013 
L 361.010625 233.272968 
" clip-path="url(#pd0e45f7ea0)" style="fill: none; stroke: #4b4b4b"/>
   </g>
   <g id="line2d_55">
    <path d="M 349.850625 267.368558 
L 372.170625 267.368558 
" clip-path="url(#pd0e45f7ea0)" style="fill: none; stroke: #4b4b4b; stroke-linecap: square"/>
   </g>
   <g id="line2d_56">
    <path d="M 349.850625 233.272968 
L 372.170625 233.272968 
" clip-path="url(#pd0e45f7ea0)" style="fill: none; stroke: #4b4b4b; stroke-linecap: square"/>
   </g>
   <g id="line2d_57">
    <g clip-path="url(#pd0e45f7ea0)">
     <use xlink:href="#mcb1ecfb57d" x="361.010625" y="227.5725" style="fill-opacity: 0; stroke: #4b4b4b"/>
     <use xlink:href="#mcb1ecfb57d" x="361.010625" y="227.447412" style="fill-opacity: 0; stroke: #4b4b4b"/>
     <use xlink:href="#mcb1ecfb57d" x="361.010625" y="226.500312" style="fill-opacity: 0; stroke: #4b4b4b"/>
    </g>
   </g>
   <g id="patch_14">
    <path d="M 450.290625 227.521125 
L 494.930625 227.521125 
L 494.930625 202.758041 
L 450.290625 202.758041 
L 450.290625 227.521125 
z
" clip-path="url(#pd0e45f7ea0)" style="fill: #42b874; stroke: #4b4b4b; stroke-linejoin: miter"/>
   </g>
   <g id="line2d_58">
    <path d="M 472.610625 227.521125 
L 472.610625 252.706382 
" clip-path="url(#pd0e45f7ea0)" style="fill: none; stroke: #4b4b4b"/>
   </g>
   <g id="line2d_59">
    <path d="M 472.610625 202.758041 
L 472.610625 175.59817 
" clip-path="url(#pd0e45f7ea0)" style="fill: none; stroke: #4b4b4b"/>
   </g>
   <g id="line2d_60">
    <path d="M 461.450625 252.706382 
L 483.770625 252.706382 
" clip-path="url(#pd0e45f7ea0)" style="fill: none; stroke: #4b4b4b; stroke-linecap: square"/>
   </g>
   <g id="line2d_61">
    <path d="M 461.450625 175.59817 
L 483.770625 175.59817 
" clip-path="url(#pd0e45f7ea0)" style="fill: none; stroke: #4b4b4b; stroke-linecap: square"/>
   </g>
   <g id="line2d_62"/>
   <g id="patch_15">
    <path d="M 561.890625 270.882208 
L 606.530625 270.882208 
L 606.530625 266.251695 
L 561.890625 266.251695 
L 561.890625 270.882208 
z
" clip-path="url(#pd0e45f7ea0)" style="fill: #42b874; stroke: #4b4b4b; stroke-linejoin: miter"/>
   </g>
   <g id="line2d_63">
    <path d="M 584.210625 270.882208 
L 584.210625 273.998255 
" clip-path="url(#pd0e45f7ea0)" style="fill: none; stroke: #4b4b4b"/>
   </g>
   <g id="line2d_64">
    <path d="M 584.210625 266.251695 
L 584.210625 259.782825 
" clip-path="url(#pd0e45f7ea0)" style="fill: none; stroke: #4b4b4b"/>
   </g>
   <g id="line2d_65">
    <path d="M 573.050625 273.998255 
L 595.370625 273.998255 
" clip-path="url(#pd0e45f7ea0)" style="fill: none; stroke: #4b4b4b; stroke-linecap: square"/>
   </g>
   <g id="line2d_66">
    <path d="M 573.050625 259.782825 
L 595.370625 259.782825 
" clip-path="url(#pd0e45f7ea0)" style="fill: none; stroke: #4b4b4b; stroke-linecap: square"/>
   </g>
   <g id="line2d_67"/>
   <g id="patch_16">
    <path d="M 673.490625 276.028712 
L 718.130625 276.028712 
L 718.130625 264.549596 
L 673.490625 264.549596 
L 673.490625 276.028712 
z
" clip-path="url(#pd0e45f7ea0)" style="fill: #42b874; stroke: #4b4b4b; stroke-linejoin: miter"/>
   </g>
   <g id="line2d_68">
    <path d="M 695.810625 276.028712 
L 695.810625 286.918125 
" clip-path="url(#pd0e45f7ea0)" style="fill: none; stroke: #4b4b4b"/>
   </g>
   <g id="line2d_69">
    <path d="M 695.810625 264.549596 
L 695.810625 248.453368 
" clip-path="url(#pd0e45f7ea0)" style="fill: none; stroke: #4b4b4b"/>
   </g>
   <g id="line2d_70">
    <path d="M 684.650625 286.918125 
L 706.970625 286.918125 
" clip-path="url(#pd0e45f7ea0)" style="fill: none; stroke: #4b4b4b; stroke-linecap: square"/>
   </g>
   <g id="line2d_71">
    <path d="M 684.650625 248.453368 
L 706.970625 248.453368 
" clip-path="url(#pd0e45f7ea0)" style="fill: none; stroke: #4b4b4b; stroke-linecap: square"/>
   </g>
   <g id="line2d_72"/>
   <g id="line2d_73">
    <path d="M 70.850625 270.102638 
L 115.490625 270.102638 
" clip-path="url(#pd0e45f7ea0)" style="fill: none; stroke: #4b4b4b"/>
   </g>
   <g id="line2d_74">
    <path d="M 182.450625 251.129372 
L 227.090625 251.129372 
" clip-path="url(#pd0e45f7ea0)" style="fill: none; stroke: #4b4b4b"/>
   </g>
   <g id="line2d_75">
    <path d="M 294.050625 223.198865 
L 338.690625 223.198865 
" clip-path="url(#pd0e45f7ea0)" style="fill: none; stroke: #4b4b4b"/>
   </g>
   <g id="line2d_76">
    <path d="M 405.650625 101.778003 
L 450.290625 101.778003 
" clip-path="url(#pd0e45f7ea0)" style="fill: none; stroke: #4b4b4b"/>
   </g>
   <g id="line2d_77">
    <path d="M 517.250625 252.487477 
L 561.890625 252.487477 
" clip-path="url(#pd0e45f7ea0)" style="fill: none; stroke: #4b4b4b"/>
   </g>
   <g id="line2d_78">
    <path d="M 628.850625 237.418763 
L 673.490625 237.418763 
" clip-path="url(#pd0e45f7ea0)" style="fill: none; stroke: #4b4b4b"/>
   </g>
   <g id="line2d_79">
    <path d="M 115.490625 274.820267 
L 160.130625 274.820267 
" clip-path="url(#pd0e45f7ea0)" style="fill: none; stroke: #4b4b4b"/>
   </g>
   <g id="line2d_80">
    <path d="M 227.090625 257.51336 
L 271.730625 257.51336 
" clip-path="url(#pd0e45f7ea0)" style="fill: none; stroke: #4b4b4b"/>
   </g>
   <g id="line2d_81">
    <path d="M 338.690625 253.041441 
L 383.330625 253.041441 
" clip-path="url(#pd0e45f7ea0)" style="fill: none; stroke: #4b4b4b"/>
   </g>
   <g id="line2d_82">
    <path d="M 450.290625 212.043639 
L 494.930625 212.043639 
" clip-path="url(#pd0e45f7ea0)" style="fill: none; stroke: #4b4b4b"/>
   </g>
   <g id="line2d_83">
    <path d="M 561.890625 268.436278 
L 606.530625 268.436278 
" clip-path="url(#pd0e45f7ea0)" style="fill: none; stroke: #4b4b4b"/>
   </g>
   <g id="line2d_84">
    <path d="M 673.490625 268.71326 
L 718.130625 268.71326 
" clip-path="url(#pd0e45f7ea0)" style="fill: none; stroke: #4b4b4b"/>
   </g>
   <g id="patch_17">
    <path d="M 59.690625 299.518125 
L 59.690625 22.318125 
" style="fill: none; stroke: #000000; stroke-width: 0.8; stroke-linejoin: miter; stroke-linecap: square"/>
   </g>
   <g id="patch_18">
    <path d="M 729.290625 299.518125 
L 729.290625 22.318125 
" style="fill: none; stroke: #000000; stroke-width: 0.8; stroke-linejoin: miter; stroke-linecap: square"/>
   </g>
   <g id="patch_19">
    <path d="M 59.690625 299.518125 
L 729.290625 299.518125 
" style="fill: none; stroke: #000000; stroke-width: 0.8; stroke-linejoin: miter; stroke-linecap: square"/>
   </g>
   <g id="patch_20">
    <path d="M 59.690625 22.318125 
L 729.290625 22.318125 
" style="fill: none; stroke: #000000; stroke-width: 0.8; stroke-linejoin: miter; stroke-linecap: square"/>
   </g>
   <g id="text_15">
    <!-- Step 1: Raw Counts (Misleading! Parkinson's looks higher in everything) -->
    <g transform="translate(178.573125 16.318125) scale(0.12 -0.12)">
     <defs>
      <path id="DejaVuSans-53" d="M 3425 4513 
L 3425 3897 
Q 3066 4069 2747 4153 
Q 2428 4238 2131 4238 
Q 1616 4238 1336 4038 
Q 1056 3838 1056 3469 
Q 1056 3159 1242 3001 
Q 1428 2844 1947 2747 
L 2328 2669 
Q 3034 2534 3370 2195 
Q 3706 1856 3706 1288 
Q 3706 609 3251 259 
Q 2797 -91 1919 -91 
Q 1588 -91 1214 -16 
Q 841 59 441 206 
L 441 856 
Q 825 641 1194 531 
Q 1563 422 1919 422 
Q 2459 422 2753 634 
Q 3047 847 3047 1241 
Q 3047 1584 2836 1778 
Q 2625 1972 2144 2069 
L 1759 2144 
Q 1053 2284 737 2584 
Q 422 2884 422 3419 
Q 422 4038 858 4394 
Q 1294 4750 2059 4750 
Q 2388 4750 2728 4690 
Q 3069 4631 3425 4513 
z
" transform="scale(0.015625)"/>
      <path id="DejaVuSans-70" d="M 1159 525 
L 1159 -1331 
L 581 -1331 
L 581 3500 
L 1159 3500 
L 1159 2969 
Q 1341 3281 1617 3432 
Q 1894 3584 2278 3584 
Q 2916 3584 3314 3078 
Q 3713 2572 3713 1747 
Q 3713 922 3314 415 
Q 2916 -91 2278 -91 
Q 1894 -91 1617 61 
Q 1341 213 1159 525 
z
M 3116 1747 
Q 3116 2381 2855 2742 
Q 2594 3103 2138 3103 
Q 1681 3103 1420 2742 
Q 1159 2381 1159 1747 
Q 1159 1113 1420 752 
Q 1681 391 2138 391 
Q 2594 391 2855 752 
Q 3116 1113 3116 1747 
z
" transform="scale(0.015625)"/>
      <path id="DejaVuSans-3a" d="M 750 794 
L 1409 794 
L 1409 0 
L 750 0 
L 750 794 
z
M 750 3309 
L 1409 3309 
L 1409 2516 
L 750 2516 
L 750 3309 
z
" transform="scale(0.015625)"/>
      <path id="DejaVuSans-28" d="M 1984 4856 
Q 1566 4138 1362 3434 
Q 1159 2731 1159 2009 
Q 1159 1288 1364 580 
Q 1569 -128 1984 -844 
L 1484 -844 
Q 1016 -109 783 600 
Q 550 1309 550 2009 
Q 550 2706 781 3412 
Q 1013 4119 1484 4856 
L 1984 4856 
z
" transform="scale(0.015625)"/>
      <path id="DejaVuSans-4d" d="M 628 4666 
L 1569 4666 
L 2759 1491 
L 3956 4666 
L 4897 4666 
L 4897 0 
L 4281 0 
L 4281 4097 
L 3078 897 
L 2444 897 
L 1241 4097 
L 1241 0 
L 628 0 
L 628 4666 
z
" transform="scale(0.015625)"/>
      <path id="DejaVuSans-67" d="M 2906 1791 
Q 2906 2416 2648 2759 
Q 2391 3103 1925 3103 
Q 1463 3103 1205 2759 
Q 947 2416 947 1791 
Q 947 1169 1205 825 
Q 1463 481 1925 481 
Q 2391 481 2648 825 
Q 2906 1169 2906 1791 
z
M 3481 434 
Q 3481 -459 3084 -895 
Q 2688 -1331 1869 -1331 
Q 1566 -1331 1297 -1286 
Q 1028 -1241 775 -1147 
L 775 -588 
Q 1028 -725 1275 -790 
Q 1522 -856 1778 -856 
Q 2344 -856 2625 -561 
Q 2906 -266 2906 331 
L 2906 616 
Q 2728 306 2450 153 
Q 2172 0 1784 0 
Q 1141 0 747 490 
Q 353 981 353 1791 
Q 353 2603 747 3093 
Q 1141 3584 1784 3584 
Q 2172 3584 2450 3431 
Q 2728 3278 2906 2969 
L 2906 3500 
L 3481 3500 
L 3481 434 
z
" transform="scale(0.015625)"/>
      <path id="DejaVuSans-21" d="M 966 794 
L 1600 794 
L 1600 0 
L 966 0 
L 966 794 
z
M 966 4666 
L 1600 4666 
L 1600 2619 
L 1538 1503 
L 1031 1503 
L 966 2619 
L 966 4666 
z
" transform="scale(0.015625)"/>
      <path id="DejaVuSans-6b" d="M 581 4863 
L 1159 4863 
L 1159 1991 
L 2875 3500 
L 3609 3500 
L 1753 1863 
L 3688 0 
L 2938 0 
L 1159 1709 
L 1159 0 
L 581 0 
L 581 4863 
z
" transform="scale(0.015625)"/>
      <path id="DejaVuSans-27" d="M 1147 4666 
L 1147 2931 
L 616 2931 
L 616 4666 
L 1147 4666 
z
" transform="scale(0.015625)"/>
      <path id="DejaVuSans-79" d="M 2059 -325 
Q 1816 -950 1584 -1140 
Q 1353 -1331 966 -1331 
L 506 -1331 
L 506 -850 
L 844 -850 
Q 1081 -850 1212 -737 
Q 1344 -625 1503 -206 
L 1606 56 
L 191 3500 
L 800 3500 
L 1894 763 
L 2988 3500 
L 3597 3500 
L 2059 -325 
z
" transform="scale(0.015625)"/>
      <path id="DejaVuSans-29" d="M 513 4856 
L 1013 4856 
Q 1481 4119 1714 3412 
Q 1947 2706 1947 2009 
Q 1947 1309 1714 600 
Q 1481 -109 1013 -844 
L 513 -844 
Q 928 -128 1133 580 
Q 1338 1288 1338 2009 
Q 1338 2731 1133 3434 
Q 928 4138 513 4856 
z
" transform="scale(0.015625)"/>
     </defs>
     <use xlink:href="#DejaVuSans-53"/>
     <use xlink:href="#DejaVuSans-74" transform="translate(63.476562 0)"/>
     <use xlink:href="#DejaVuSans-65" transform="translate(102.685547 0)"/>
     <use xlink:href="#DejaVuSans-70" transform="translate(164.208984 0)"/>
     <use xlink:href="#DejaVuSans-20" transform="translate(227.685547 0)"/>
     <use xlink:href="#DejaVuSans-31" transform="translate(259.472656 0)"/>
     <use xlink:href="#DejaVuSans-3a" transform="translate(323.095703 0)"/>
     <use xlink:href="#DejaVuSans-20" transform="translate(356.787109 0)"/>
     <use xlink:href="#DejaVuSans-52" transform="translate(388.574219 0)"/>
     <use xlink:href="#DejaVuSans-61" transform="translate(455.806641 0)"/>
     <use xlink:href="#DejaVuSans-77" transform="translate(517.085938 0)"/>
     <use xlink:href="#DejaVuSans-20" transform="translate(598.873047 0)"/>
     <use xlink:href="#DejaVuSans-43" transform="translate(630.660156 0)"/>
     <use xlink:href="#DejaVuSans-6f" transform="translate(700.484375 0)"/>
     <use xlink:href="#DejaVuSans-75" transform="translate(761.666016 0)"/>
     <use xlink:href="#DejaVuSans-6e" transform="translate(825.044922 0)"/>
     <use xlink:href="#DejaVuSans-74" transform="translate(888.423828 0)"/>
     <use xlink:href="#DejaVuSans-73" transform="translate(927.632812 0)"/>
     <use xlink:href="#DejaVuSans-20" transform="translate(979.732422 0)"/>
     <use xlink:href="#DejaVuSans-28" transform="translate(1011.519531 0)"/>
     <use xlink:href="#DejaVuSans-4d" transform="translate(1050.533203 0)"/>
     <use xlink:href="#DejaVuSans-69" transform="translate(1136.8125 0)"/>
     <use xlink:href="#DejaVuSans-73" transform="translate(1164.595703 0)"/>
     <use xlink:href="#DejaVuSans-6c" transform="translate(1216.695312 0)"/>
     <use xlink:href="#DejaVuSans-65" transform="translate(1244.478516 0)"/>
     <use xlink:href="#DejaVuSans-61" transform="translate(1306.001953 0)"/>
     <use xlink:href="#DejaVuSans-64" transform="translate(1367.28125 0)"/>
     <use xlink:href="#DejaVuSans-69" transform="translate(1430.757812 0)"/>
     <use xlink:href="#DejaVuSans-6e" transform="translate(1458.541016 0)"/>
     <use xlink:href="#DejaVuSans-67" transform="translate(1521.919922 0)"/>
     <use xlink:href="#DejaVuSans-21" transform="translate(1585.396484 0)"/>
     <use xlink:href="#DejaVuSans-20" transform="translate(1625.484375 0)"/>
     <use xlink:href="#DejaVuSans-50" transform="translate(1657.271484 0)"/>
     <use xlink:href="#DejaVuSans-61" transform="translate(1713.074219 0)"/>
     <use xlink:href="#DejaVuSans-72" transform="translate(1774.353516 0)"/>
     <use xlink:href="#DejaVuSans-6b" transform="translate(1815.466797 0)"/>
     <use xlink:href="#DejaVuSans-69" transform="translate(1873.376953 0)"/>
     <use xlink:href="#DejaVuSans-6e" transform="translate(1901.160156 0)"/>
     <use xlink:href="#DejaVuSans-73" transform="translate(1964.539062 0)"/>
     <use xlink:href="#DejaVuSans-6f" transform="translate(2016.638672 0)"/>
     <use xlink:href="#DejaVuSans-6e" transform="translate(2077.820312 0)"/>
     <use xlink:href="#DejaVuSans-27" transform="translate(2141.199219 0)"/>
     <use xlink:href="#DejaVuSans-73" transform="translate(2168.689453 0)"/>
     <use xlink:href="#DejaVuSans-20" transform="translate(2220.789062 0)"/>
     <use xlink:href="#DejaVuSans-6c" transform="translate(2252.576172 0)"/>
     <use xlink:href="#DejaVuSans-6f" transform="translate(2280.359375 0)"/>
     <use xlink:href="#DejaVuSans-6f" transform="translate(2341.541016 0)"/>
     <use xlink:href="#DejaVuSans-6b" transform="translate(2402.722656 0)"/>
     <use xlink:href="#DejaVuSans-73" transform="translate(2460.632812 0)"/>
     <use xlink:href="#DejaVuSans-20" transform="translate(2512.732422 0)"/>
     <use xlink:href="#DejaVuSans-68" transform="translate(2544.519531 0)"/>
     <use xlink:href="#DejaVuSans-69" transform="translate(2607.898438 0)"/>
     <use xlink:href="#DejaVuSans-67" transform="translate(2635.681641 0)"/>
     <use xlink:href="#DejaVuSans-68" transform="translate(2699.158203 0)"/>
     <use xlink:href="#DejaVuSans-65" transform="translate(2762.537109 0)"/>
     <use xlink:href="#DejaVuSans-72" transform="translate(2824.060547 0)"/>
     <use xlink:href="#DejaVuSans-20" transform="translate(2865.173828 0)"/>
     <use xlink:href="#DejaVuSans-69" transform="translate(2896.960938 0)"/>
     <use xlink:href="#DejaVuSans-6e" transform="translate(2924.744141 0)"/>
     <use xlink:href="#DejaVuSans-20" transform="translate(2988.123047 0)"/>
     <use xlink:href="#DejaVuSans-65" transform="translate(3019.910156 0)"/>
     <use xlink:href="#DejaVuSans-76" transform="translate(3081.433594 0)"/>
     <use xlink:href="#DejaVuSans-65" transform="translate(3140.613281 0)"/>
     <use xlink:href="#DejaVuSans-72" transform="translate(3202.136719 0)"/>
     <use xlink:href="#DejaVuSans-79" transform="translate(3243.25 0)"/>
     <use xlink:href="#DejaVuSans-74" transform="translate(3302.429688 0)"/>
     <use xlink:href="#DejaVuSans-68" transform="translate(3341.638672 0)"/>
     <use xlink:href="#DejaVuSans-69" transform="translate(3405.017578 0)"/>
     <use xlink:href="#DejaVuSans-6e" transform="translate(3432.800781 0)"/>
     <use xlink:href="#DejaVuSans-67" transform="translate(3496.179688 0)"/>
     <use xlink:href="#DejaVuSans-29" transform="translate(3559.65625 0)"/>
    </g>
   </g>
   <g id="legend_1">
    <g id="patch_21">
     <path d="M 633.942188 74.3525 
L 722.290625 74.3525 
Q 724.290625 74.3525 724.290625 72.3525 
L 724.290625 29.318125 
Q 724.290625 27.318125 722.290625 27.318125 
L 633.942188 27.318125 
Q 631.942188 27.318125 631.942188 29.318125 
L 631.942188 72.3525 
Q 631.942188 74.3525 633.942188 74.3525 
z
" style="fill: #ffffff; opacity: 0.8; stroke: #cccccc; stroke-linejoin: miter"/>
    </g>
    <g id="text_16">
     <!-- Diagnosis -->
     <g transform="translate(653.8125 38.916562) scale(0.1 -0.1)">
      <defs>
       <path id="DejaVuSans-44" d="M 1259 4147 
L 1259 519 
L 2022 519 
Q 2988 519 3436 956 
Q 3884 1394 3884 2338 
Q 3884 3275 3436 3711 
Q 2988 4147 2022 4147 
L 1259 4147 
z
M 628 4666 
L 1925 4666 
Q 3281 4666 3915 4102 
Q 4550 3538 4550 2338 
Q 4550 1131 3912 565 
Q 3275 0 1925 0 
L 628 0 
L 628 4666 
z
" transform="scale(0.015625)"/>
      </defs>
      <use xlink:href="#DejaVuSans-44"/>
      <use xlink:href="#DejaVuSans-69" transform="translate(77.001953 0)"/>
      <use xlink:href="#DejaVuSans-61" transform="translate(104.785156 0)"/>
      <use xlink:href="#DejaVuSans-67" transform="translate(166.064453 0)"/>
      <use xlink:href="#DejaVuSans-6e" transform="translate(229.541016 0)"/>
      <use xlink:href="#DejaVuSans-6f" transform="translate(292.919922 0)"/>
      <use xlink:href="#DejaVuSans-73" transform="translate(354.101562 0)"/>
      <use xlink:href="#DejaVuSans-69" transform="translate(406.201172 0)"/>
      <use xlink:href="#DejaVuSans-73" transform="translate(433.984375 0)"/>
     </g>
    </g>
    <g id="patch_22">
     <path d="M 635.942188 53.594688 
L 655.942188 53.594688 
L 655.942188 46.594688 
L 635.942188 46.594688 
z
" style="fill: #d25d51; stroke: #4b4b4b; stroke-linejoin: miter"/>
    </g>
    <g id="text_17">
     <!-- Parkinson's -->
     <g transform="translate(663.942188 53.594688) scale(0.1 -0.1)">
      <use xlink:href="#DejaVuSans-50"/>
      <use xlink:href="#DejaVuSans-61" transform="translate(55.802734 0)"/>
      <use xlink:href="#DejaVuSans-72" transform="translate(117.082031 0)"/>
      <use xlink:href="#DejaVuSans-6b" transform="translate(158.195312 0)"/>
      <use xlink:href="#DejaVuSans-69" transform="translate(216.105469 0)"/>
      <use xlink:href="#DejaVuSans-6e" transform="translate(243.888672 0)"/>
      <use xlink:href="#DejaVuSans-73" transform="translate(307.267578 0)"/>
      <use xlink:href="#DejaVuSans-6f" transform="translate(359.367188 0)"/>
      <use xlink:href="#DejaVuSans-6e" transform="translate(420.548828 0)"/>
      <use xlink:href="#DejaVuSans-27" transform="translate(483.927734 0)"/>
      <use xlink:href="#DejaVuSans-73" transform="translate(511.417969 0)"/>
     </g>
    </g>
    <g id="patch_23">
     <path d="M 635.942188 68.272813 
L 655.942188 68.272813 
L 655.942188 61.272813 
L 635.942188 61.272813 
z
" style="fill: #42b874; stroke: #4b4b4b; stroke-linejoin: miter"/>
    </g>
    <g id="text_18">
     <!-- Healthy -->
     <g transform="translate(663.942188 68.272813) scale(0.1 -0.1)">
      <defs>
       <path id="DejaVuSans-48" d="M 628 4666 
L 1259 4666 
L 1259 2753 
L 3553 2753 
L 3553 4666 
L 4184 4666 
L 4184 0 
L 3553 0 
L 3553 2222 
L 1259 2222 
L 1259 0 
L 628 0 
L 628 4666 
z
" transform="scale(0.015625)"/>
      </defs>
      <use xlink:href="#DejaVuSans-48"/>
      <use xlink:href="#DejaVuSans-65" transform="translate(75.195312 0)"/>
      <use xlink:href="#DejaVuSans-61" transform="translate(136.71875 0)"/>
      <use xlink:href="#DejaVuSans-6c" transform="translate(197.998047 0)"/>
      <use xlink:href="#DejaVuSans-74" transform="translate(225.78125 0)"/>
      <use xlink:href="#DejaVuSans-68" transform="translate(264.990234 0)"/>
      <use xlink:href="#DejaVuSans-79" transform="translate(328.369141 0)"/>
     </g>
    </g>
   </g>
  </g>
 </g>
 <defs>
  <clipPath id="pd0e45f7ea0">
   <rect x="59.690625" y="22.318125" width="669.6" height="277.2"/>
  </clipPath>
 </defs>
</svg>
