<?xml version="1.0" encoding="utf-8" standalone="no"?>
<!DOCTYPE svg PUBLIC "-//W3C//DTD SVG 1.1//EN"
  "http://www.w3.org/Graphics/SVG/1.1/DTD/svg11.dtd">
<svg xmlns:xlink="http://www.w3.org/1999/xlink" width="712.8pt" height="496.54825pt" viewBox="0 0 712.8 496.54825" xmlns="http://www.w3.org/2000/svg" version="1.1">
 <metadata>
  <rdf:RDF xmlns:dc="http://purl.org/dc/elements/1.1/" xmlns:cc="http://creativecommons.org/ns#" xmlns:rdf="http://www.w3.org/1999/02/22-rdf-syntax-ns#">
   <cc:Work>
    <dc:type rdf:resource="http://purl.org/dc/dcmitype/StillImage"/>
    <dc:date>2026-07-08T08:27:29.786931</dc:date>
    <dc:format>image/svg+xml</dc:format>
    <dc:creator>
     <cc:Agent>
      <dc:title>Matplotlib v3.10.8, https://matplotlib.org/</dc:title>
     </cc:Agent>
    </dc:creator>
   </cc:Work>
  </rdf:RDF>
 </metadata>
 <defs>
  <style type="text/css">*{stroke-linejoin: round; stroke-linecap: butt}</style>
 </defs>
 <g id="figure_1">
  <g id="patch_1">
   <path d="M 0 496.54825 
L 712.8 496.54825 
L 712.8 0 
L 0 0 
z
" style="fill: #ffffff"/>
  </g>
  <g id="axes_1">
   <g id="patch_2">
    <path d="M 75.506874 82.584952 
Q 212.102386 152.957458 345.927226 221.902544 
" clip-path="url(#p844adc9c12)" style="fill: none; stroke: #3498db; stroke-opacity: 0.7; stroke-width: 2.787709; stroke-linecap: round"/>
    <path d="M 342.759373 217.57072 
L 345.927226 221.902544 
L 340.561055 221.837733 
z
" clip-path="url(#p844adc9c12)" style="fill: #3498db; fill-opacity: 0.7; stroke: #3498db; stroke-opacity: 0.7; stroke-width: 2.787709; stroke-linecap: round"/>
   </g>
   <g id="patch_3">
    <path d="M 74.659179 83.913839 
Q 212.104342 190.129194 346.010868 293.609948 
" clip-path="url(#p844adc9c12)" style="fill: none; stroke: #e74c3c; stroke-opacity: 0.7; stroke-width: 4; stroke-linecap: round"/>
    <path d="M 343.680344 288.775834 
L 346.010868 293.609948 
L 340.745262 292.573899 
z
" clip-path="url(#p844adc9c12)" style="fill: #e74c3c; fill-opacity: 0.7; stroke: #e74c3c; stroke-opacity: 0.7; stroke-width: 4; stroke-linecap: round"/>
   </g>
   <g id="patch_4">
    <path d="M 76.193837 155.118435 
Q 212.104686 190.128323 343.684775 224.02263 
" clip-path="url(#p844adc9c12)" style="fill: none; stroke: #3498db; stroke-opacity: 0.7; stroke-width: 4; stroke-linecap: round"/>
    <path d="M 339.635199 220.501134 
L 343.684775 224.02263 
L 338.437833 225.149394 
z
" clip-path="url(#p844adc9c12)" style="fill: #3498db; fill-opacity: 0.7; stroke: #3498db; stroke-opacity: 0.7; stroke-width: 4; stroke-linecap: round"/>
   </g>
   <g id="patch_5">
    <path d="M 75.506874 156.925448 
Q 212.102386 227.297954 344.722344 295.622298 
" clip-path="url(#p844adc9c12)" style="fill: none; stroke: #e74c3c; stroke-opacity: 0.7; stroke-width: 4; stroke-linecap: round"/>
    <path d="M 341.55449 291.290473 
L 344.722344 295.622298 
L 339.356172 295.557486 
z
" clip-path="url(#p844adc9c12)" style="fill: #e74c3c; fill-opacity: 0.7; stroke: #e74c3c; stroke-opacity: 0.7; stroke-width: 4; stroke-linecap: round"/>
   </g>
   <g id="patch_6">
    <path d="M 76.466861 227.298002 
Q 212.104325 227.298002 347.403039 227.298002 
" clip-path="url(#p844adc9c12)" style="fill: none; stroke: #e74c3c; stroke-opacity: 0.7; stroke-width: 0.302988; stroke-linecap: round"/>
    <path d="M 342.603039 224.898002 
L 347.403039 227.298002 
L 342.603039 229.698002 
z
" clip-path="url(#p844adc9c12)" style="fill: #e74c3c; fill-opacity: 0.7; stroke: #e74c3c; stroke-opacity: 0.7; stroke-width: 0.302988; stroke-linecap: round"/>
   </g>
   <g id="patch_7">
    <path d="M 76.193837 229.458931 
Q 212.104686 264.468818 347.836319 299.432541 
" clip-path="url(#p844adc9c12)" style="fill: none; stroke: #e74c3c; stroke-opacity: 0.7; stroke-width: 0.165528; stroke-linecap: round"/>
    <path d="M 343.786743 295.911045 
L 347.836319 299.432541 
L 342.589377 300.559305 
z
" clip-path="url(#p844adc9c12)" style="fill: #e74c3c; fill-opacity: 0.7; stroke: #e74c3c; stroke-opacity: 0.7; stroke-width: 0.165528; stroke-linecap: round"/>
   </g>
   <g id="patch_8">
    <path d="M 76.193837 299.477569 
Q 212.104686 264.467682 344.681263 230.316684 
" clip-path="url(#p844adc9c12)" style="fill: none; stroke: #e74c3c; stroke-opacity: 0.7; stroke-width: 3.079619; stroke-linecap: round"/>
    <path d="M 339.434321 229.189921 
L 344.681263 230.316684 
L 340.631687 233.83818 
z
" clip-path="url(#p844adc9c12)" style="fill: #e74c3c; fill-opacity: 0.7; stroke: #e74c3c; stroke-opacity: 0.7; stroke-width: 3.079619; stroke-linecap: round"/>
   </g>
   <g id="patch_9">
    <path d="M 76.466861 301.638498 
Q 212.104325 301.638498 343.744707 301.638498 
" clip-path="url(#p844adc9c12)" style="fill: none; stroke: #3498db; stroke-opacity: 0.7; stroke-width: 3.575099; stroke-linecap: round"/>
    <path d="M 338.944707 299.238498 
L 343.744707 301.638498 
L 338.944707 304.038498 
z
" clip-path="url(#p844adc9c12)" style="fill: #3498db; fill-opacity: 0.7; stroke: #3498db; stroke-opacity: 0.7; stroke-width: 3.575099; stroke-linecap: round"/>
   </g>
   <g id="patch_10">
    <path d="M 75.506874 372.011052 
Q 212.102386 301.638546 347.878745 231.688059 
" clip-path="url(#p844adc9c12)" style="fill: none; stroke: #3498db; stroke-opacity: 0.7; stroke-width: 0.82419; stroke-linecap: round"/>
    <path d="M 342.512573 231.752871 
L 347.878745 231.688059 
L 344.710891 236.019883 
z
" clip-path="url(#p844adc9c12)" style="fill: #3498db; fill-opacity: 0.7; stroke: #3498db; stroke-opacity: 0.7; stroke-width: 0.82419; stroke-linecap: round"/>
   </g>
   <g id="patch_11">
    <path d="M 76.193837 373.818065 
Q 212.104686 338.808177 345.988171 304.320528 
" clip-path="url(#p844adc9c12)" style="fill: none; stroke: #3498db; stroke-opacity: 0.7; stroke-width: 1.872525; stroke-linecap: round"/>
    <path d="M 340.741228 303.193764 
L 345.988171 304.320528 
L 341.938594 307.842024 
z
" clip-path="url(#p844adc9c12)" style="fill: #3498db; fill-opacity: 0.7; stroke: #3498db; stroke-opacity: 0.7; stroke-width: 1.872525; stroke-linecap: round"/>
   </g>
   <g id="patch_12">
    <path d="M 74.659179 445.022661 
Q 212.104342 338.807306 346.010868 235.326552 
" clip-path="url(#p844adc9c12)" style="fill: none; stroke: #e74c3c; stroke-opacity: 0.7; stroke-width: 4; stroke-linecap: round"/>
    <path d="M 340.745262 236.362601 
L 346.010868 235.326552 
L 343.680344 240.160666 
z
" clip-path="url(#p844adc9c12)" style="fill: #e74c3c; fill-opacity: 0.7; stroke: #e74c3c; stroke-opacity: 0.7; stroke-width: 4; stroke-linecap: round"/>
   </g>
   <g id="patch_13">
    <path d="M 75.506874 446.351548 
Q 212.102386 375.979042 344.722344 307.654698 
" clip-path="url(#p844adc9c12)" style="fill: none; stroke: #3498db; stroke-opacity: 0.7; stroke-width: 4; stroke-linecap: round"/>
    <path d="M 339.356172 307.71951 
L 344.722344 307.654698 
L 341.55449 311.986522 
z
" clip-path="url(#p844adc9c12)" style="fill: #3498db; fill-opacity: 0.7; stroke: #3498db; stroke-opacity: 0.7; stroke-width: 4; stroke-linecap: round"/>
   </g>
   <g id="patch_14">
    <path d="M 364.991445 228.404557 
Q 500.697228 245.883088 630.85864 262.64752 
" clip-path="url(#p844adc9c12)" style="fill: none; stroke: #e74c3c; stroke-opacity: 0.7; stroke-width: 5; stroke-linecap: round"/>
    <path d="M 626.404545 259.654021 
L 630.85864 262.64752 
L 625.791383 264.414696 
z
" clip-path="url(#p844adc9c12)" style="fill: #e74c3c; fill-opacity: 0.7; stroke: #e74c3c; stroke-opacity: 0.7; stroke-width: 5; stroke-linecap: round"/>
   </g>
   <g id="patch_15">
    <path d="M 364.991445 300.531943 
Q 500.697228 283.053412 630.85864 266.28898 
" clip-path="url(#p844adc9c12)" style="fill: none; stroke: #3498db; stroke-opacity: 0.7; stroke-width: 5; stroke-linecap: round"/>
    <path d="M 625.791383 264.521804 
L 630.85864 266.28898 
L 626.404545 269.282479 
z
" clip-path="url(#p844adc9c12)" style="fill: #3498db; fill-opacity: 0.7; stroke: #3498db; stroke-opacity: 0.7; stroke-width: 5; stroke-linecap: round"/>
   </g>
   <g id="PathCollection_1">
    <defs>
     <path id="mfe2771e0f0" d="M 0 27.386128 
C 7.262886 27.386128 14.229281 24.500553 19.364917 19.364917 
C 24.500553 14.229281 27.386128 7.262886 27.386128 0 
C 27.386128 -7.262886 24.500553 -14.229281 19.364917 -19.364917 
C 14.229281 -24.500553 7.262886 -27.386128 0 -27.386128 
C -7.262886 -27.386128 -14.229281 -24.500553 -19.364917 -19.364917 
C -24.500553 -14.229281 -27.386128 -7.262886 -27.386128 0 
C -27.386128 7.262886 -24.500553 14.229281 -19.364917 19.364917 
C -14.229281 24.500553 -7.262886 27.386128 0 27.386128 
z
" style="stroke: #000000; stroke-width: 2"/>
    </defs>
    <g clip-path="url(#p844adc9c12)">
     <use xlink:href="#mfe2771e0f0" x="67.804959" y="78.61701" style="fill: #ffffff; stroke: #000000; stroke-width: 2"/>
     <use xlink:href="#mfe2771e0f0" x="67.804959" y="152.957506" style="fill: #ffffff; stroke: #000000; stroke-width: 2"/>
     <use xlink:href="#mfe2771e0f0" x="67.804959" y="227.298002" style="fill: #ffffff; stroke: #000000; stroke-width: 2"/>
     <use xlink:href="#mfe2771e0f0" x="67.804959" y="301.638498" style="fill: #ffffff; stroke: #000000; stroke-width: 2"/>
     <use xlink:href="#mfe2771e0f0" x="67.804959" y="375.978994" style="fill: #ffffff; stroke: #000000; stroke-width: 2"/>
     <use xlink:href="#mfe2771e0f0" x="67.804959" y="450.31949" style="fill: #ffffff; stroke: #000000; stroke-width: 2"/>
     <use xlink:href="#mfe2771e0f0" x="356.4" y="227.298002" style="fill: #ffffff; stroke: #000000; stroke-width: 2"/>
     <use xlink:href="#mfe2771e0f0" x="356.4" y="301.638498" style="fill: #ffffff; stroke: #000000; stroke-width: 2"/>
     <use xlink:href="#mfe2771e0f0" x="644.995041" y="264.46825" style="fill: #ffffff; stroke: #000000; stroke-width: 2"/>
    </g>
   </g>
   <g id="text_1">
    <g clip-path="url(#p844adc9c12)">
     <!-- Bifido -->
     <g transform="translate(51.376834 81.376385) scale(0.1 -0.1)">
      <defs>
       <path id="DejaVuSans-Bold-42" d="M 2456 2859 
Q 2741 2859 2887 2984 
Q 3034 3109 3034 3353 
Q 3034 3594 2887 3720 
Q 2741 3847 2456 3847 
L 1791 3847 
L 1791 2859 
L 2456 2859 
z
M 2497 819 
Q 2859 819 3042 972 
Q 3225 1125 3225 1434 
Q 3225 1738 3044 1889 
Q 2863 2041 2497 2041 
L 1791 2041 
L 1791 819 
L 2497 819 
z
M 3616 2497 
Q 4003 2384 4215 2081 
Q 4428 1778 4428 1338 
Q 4428 663 3972 331 
Q 3516 0 2584 0 
L 588 0 
L 588 4666 
L 2394 4666 
Q 3366 4666 3802 4372 
Q 4238 4078 4238 3431 
Q 4238 3091 4078 2852 
Q 3919 2613 3616 2497 
z
" transform="scale(0.015625)"/>
       <path id="DejaVuSans-Bold-69" d="M 538 3500 
L 1656 3500 
L 1656 0 
L 538 0 
L 538 3500 
z
M 538 4863 
L 1656 4863 
L 1656 3950 
L 538 3950 
L 538 4863 
z
" transform="scale(0.015625)"/>
       <path id="DejaVuSans-Bold-66" d="M 2841 4863 
L 2841 4128 
L 2222 4128 
Q 1984 4128 1890 4042 
Q 1797 3956 1797 3744 
L 1797 3500 
L 2753 3500 
L 2753 2700 
L 1797 2700 
L 1797 0 
L 678 0 
L 678 2700 
L 122 2700 
L 122 3500 
L 678 3500 
L 678 3744 
Q 678 4316 997 4589 
Q 1316 4863 1984 4863 
L 2841 4863 
z
" transform="scale(0.015625)"/>
       <path id="DejaVuSans-Bold-64" d="M 2919 2988 
L 2919 4863 
L 4044 4863 
L 4044 0 
L 2919 0 
L 2919 506 
Q 2688 197 2409 53 
Q 2131 -91 1766 -91 
Q 1119 -91 703 423 
Q 288 938 288 1747 
Q 288 2556 703 3070 
Q 1119 3584 1766 3584 
Q 2128 3584 2408 3439 
Q 2688 3294 2919 2988 
z
M 2181 722 
Q 2541 722 2730 984 
Q 2919 1247 2919 1747 
Q 2919 2247 2730 2509 
Q 2541 2772 2181 2772 
Q 1825 2772 1636 2509 
Q 1447 2247 1447 1747 
Q 1447 1247 1636 984 
Q 1825 722 2181 722 
z
" transform="scale(0.015625)"/>
       <path id="DejaVuSans-Bold-6f" d="M 2203 2784 
Q 1831 2784 1636 2517 
Q 1441 2250 1441 1747 
Q 1441 1244 1636 976 
Q 1831 709 2203 709 
Q 2569 709 2762 976 
Q 2956 1244 2956 1747 
Q 2956 2250 2762 2517 
Q 2569 2784 2203 2784 
z
M 2203 3584 
Q 3106 3584 3614 3096 
Q 4122 2609 4122 1747 
Q 4122 884 3614 396 
Q 3106 -91 2203 -91 
Q 1297 -91 786 396 
Q 275 884 275 1747 
Q 275 2609 786 3096 
Q 1297 3584 2203 3584 
z
" transform="scale(0.015625)"/>
      </defs>
      <use xlink:href="#DejaVuSans-Bold-42"/>
      <use xlink:href="#DejaVuSans-Bold-69" transform="translate(76.220703 0)"/>
      <use xlink:href="#DejaVuSans-Bold-66" transform="translate(110.498047 0)"/>
      <use xlink:href="#DejaVuSans-Bold-69" transform="translate(154.003906 0)"/>
      <use xlink:href="#DejaVuSans-Bold-64" transform="translate(188.28125 0)"/>
      <use xlink:href="#DejaVuSans-Bold-6f" transform="translate(259.863281 0)"/>
     </g>
    </g>
   </g>
   <g id="text_2">
    <g clip-path="url(#p844adc9c12)">
     <!-- Lacto -->
     <g transform="translate(52.45574 155.716881) scale(0.1 -0.1)">
      <defs>
       <path id="DejaVuSans-Bold-4c" d="M 588 4666 
L 1791 4666 
L 1791 909 
L 3903 909 
L 3903 0 
L 588 0 
L 588 4666 
z
" transform="scale(0.015625)"/>
       <path id="DejaVuSans-Bold-61" d="M 2106 1575 
Q 1756 1575 1579 1456 
Q 1403 1338 1403 1106 
Q 1403 894 1545 773 
Q 1688 653 1941 653 
Q 2256 653 2472 879 
Q 2688 1106 2688 1447 
L 2688 1575 
L 2106 1575 
z
M 3816 1997 
L 3816 0 
L 2688 0 
L 2688 519 
Q 2463 200 2181 54 
Q 1900 -91 1497 -91 
Q 953 -91 614 226 
Q 275 544 275 1050 
Q 275 1666 698 1953 
Q 1122 2241 2028 2241 
L 2688 2241 
L 2688 2328 
Q 2688 2594 2478 2717 
Q 2269 2841 1825 2841 
Q 1466 2841 1156 2769 
Q 847 2697 581 2553 
L 581 3406 
Q 941 3494 1303 3539 
Q 1666 3584 2028 3584 
Q 2975 3584 3395 3211 
Q 3816 2838 3816 1997 
z
" transform="scale(0.015625)"/>
       <path id="DejaVuSans-Bold-63" d="M 3366 3391 
L 3366 2478 
Q 3138 2634 2908 2709 
Q 2678 2784 2431 2784 
Q 1963 2784 1702 2511 
Q 1441 2238 1441 1747 
Q 1441 1256 1702 982 
Q 1963 709 2431 709 
Q 2694 709 2930 787 
Q 3166 866 3366 1019 
L 3366 103 
Q 3103 6 2833 -42 
Q 2563 -91 2291 -91 
Q 1344 -91 809 395 
Q 275 881 275 1747 
Q 275 2613 809 3098 
Q 1344 3584 2291 3584 
Q 2566 3584 2833 3536 
Q 3100 3488 3366 3391 
z
" transform="scale(0.015625)"/>
       <path id="DejaVuSans-Bold-74" d="M 1759 4494 
L 1759 3500 
L 2913 3500 
L 2913 2700 
L 1759 2700 
L 1759 1216 
Q 1759 972 1856 886 
Q 1953 800 2241 800 
L 2816 800 
L 2816 0 
L 1856 0 
Q 1194 0 917 276 
Q 641 553 641 1216 
L 641 2700 
L 84 2700 
L 84 3500 
L 641 3500 
L 641 4494 
L 1759 4494 
z
" transform="scale(0.015625)"/>
      </defs>
      <use xlink:href="#DejaVuSans-Bold-4c"/>
      <use xlink:href="#DejaVuSans-Bold-61" transform="translate(63.720703 0)"/>
      <use xlink:href="#DejaVuSans-Bold-63" transform="translate(131.201172 0)"/>
      <use xlink:href="#DejaVuSans-Bold-74" transform="translate(190.478516 0)"/>
      <use xlink:href="#DejaVuSans-Bold-6f" transform="translate(238.28125 0)"/>
     </g>
    </g>
   </g>
   <g id="text_3">
    <g clip-path="url(#p844adc9c12)">
     <!-- Bact -->
     <g transform="translate(55.265896 230.057377) scale(0.1 -0.1)">
      <use xlink:href="#DejaVuSans-Bold-42"/>
      <use xlink:href="#DejaVuSans-Bold-61" transform="translate(76.220703 0)"/>
      <use xlink:href="#DejaVuSans-Bold-63" transform="translate(143.701172 0)"/>
      <use xlink:href="#DejaVuSans-Bold-74" transform="translate(202.978516 0)"/>
     </g>
    </g>
   </g>
   <g id="text_4">
    <g clip-path="url(#p844adc9c12)">
     <!-- Prev -->
     <g transform="translate(55.023709 304.397873) scale(0.1 -0.1)">
      <defs>
       <path id="DejaVuSans-Bold-50" d="M 588 4666 
L 2584 4666 
Q 3475 4666 3951 4270 
Q 4428 3875 4428 3144 
Q 4428 2409 3951 2014 
Q 3475 1619 2584 1619 
L 1791 1619 
L 1791 0 
L 588 0 
L 588 4666 
z
M 1791 3794 
L 1791 2491 
L 2456 2491 
Q 2806 2491 2997 2661 
Q 3188 2831 3188 3144 
Q 3188 3456 2997 3625 
Q 2806 3794 2456 3794 
L 1791 3794 
z
" transform="scale(0.015625)"/>
       <path id="DejaVuSans-Bold-72" d="M 3138 2547 
Q 2991 2616 2845 2648 
Q 2700 2681 2553 2681 
Q 2122 2681 1889 2404 
Q 1656 2128 1656 1613 
L 1656 0 
L 538 0 
L 538 3500 
L 1656 3500 
L 1656 2925 
Q 1872 3269 2151 3426 
Q 2431 3584 2822 3584 
Q 2878 3584 2943 3579 
Q 3009 3575 3134 3559 
L 3138 2547 
z
" transform="scale(0.015625)"/>
       <path id="DejaVuSans-Bold-65" d="M 4031 1759 
L 4031 1441 
L 1416 1441 
Q 1456 1047 1700 850 
Q 1944 653 2381 653 
Q 2734 653 3104 758 
Q 3475 863 3866 1075 
L 3866 213 
Q 3469 63 3072 -14 
Q 2675 -91 2278 -91 
Q 1328 -91 801 392 
Q 275 875 275 1747 
Q 275 2603 792 3093 
Q 1309 3584 2216 3584 
Q 3041 3584 3536 3087 
Q 4031 2591 4031 1759 
z
M 2881 2131 
Q 2881 2450 2695 2645 
Q 2509 2841 2209 2841 
Q 1884 2841 1681 2658 
Q 1478 2475 1428 2131 
L 2881 2131 
z
" transform="scale(0.015625)"/>
       <path id="DejaVuSans-Bold-76" d="M 97 3500 
L 1216 3500 
L 2088 1081 
L 2956 3500 
L 4078 3500 
L 2700 0 
L 1472 0 
L 97 3500 
z
" transform="scale(0.015625)"/>
      </defs>
      <use xlink:href="#DejaVuSans-Bold-50"/>
      <use xlink:href="#DejaVuSans-Bold-72" transform="translate(73.291016 0)"/>
      <use xlink:href="#DejaVuSans-Bold-65" transform="translate(122.607422 0)"/>
      <use xlink:href="#DejaVuSans-Bold-76" transform="translate(190.429688 0)"/>
     </g>
    </g>
   </g>
   <g id="text_5">
    <g clip-path="url(#p844adc9c12)">
     <!-- Esch -->
     <g transform="translate(54.890115 378.738369) scale(0.1 -0.1)">
      <defs>
       <path id="DejaVuSans-Bold-45" d="M 588 4666 
L 3834 4666 
L 3834 3756 
L 1791 3756 
L 1791 2888 
L 3713 2888 
L 3713 1978 
L 1791 1978 
L 1791 909 
L 3903 909 
L 3903 0 
L 588 0 
L 588 4666 
z
" transform="scale(0.015625)"/>
       <path id="DejaVuSans-Bold-73" d="M 3272 3391 
L 3272 2541 
Q 2913 2691 2578 2766 
Q 2244 2841 1947 2841 
Q 1628 2841 1473 2761 
Q 1319 2681 1319 2516 
Q 1319 2381 1436 2309 
Q 1553 2238 1856 2203 
L 2053 2175 
Q 2913 2066 3209 1816 
Q 3506 1566 3506 1031 
Q 3506 472 3093 190 
Q 2681 -91 1863 -91 
Q 1516 -91 1145 -36 
Q 775 19 384 128 
L 384 978 
Q 719 816 1070 734 
Q 1422 653 1784 653 
Q 2113 653 2278 743 
Q 2444 834 2444 1013 
Q 2444 1163 2330 1236 
Q 2216 1309 1875 1350 
L 1678 1375 
Q 931 1469 631 1722 
Q 331 1975 331 2491 
Q 331 3047 712 3315 
Q 1094 3584 1881 3584 
Q 2191 3584 2531 3537 
Q 2872 3491 3272 3391 
z
" transform="scale(0.015625)"/>
       <path id="DejaVuSans-Bold-68" d="M 4056 2131 
L 4056 0 
L 2931 0 
L 2931 347 
L 2931 1625 
Q 2931 2084 2911 2256 
Q 2891 2428 2841 2509 
Q 2775 2619 2662 2680 
Q 2550 2741 2406 2741 
Q 2056 2741 1856 2470 
Q 1656 2200 1656 1722 
L 1656 0 
L 538 0 
L 538 4863 
L 1656 4863 
L 1656 2988 
Q 1909 3294 2193 3439 
Q 2478 3584 2822 3584 
Q 3428 3584 3742 3212 
Q 4056 2841 4056 2131 
z
" transform="scale(0.015625)"/>
      </defs>
      <use xlink:href="#DejaVuSans-Bold-45"/>
      <use xlink:href="#DejaVuSans-Bold-73" transform="translate(68.310547 0)"/>
      <use xlink:href="#DejaVuSans-Bold-63" transform="translate(127.832031 0)"/>
      <use xlink:href="#DejaVuSans-Bold-68" transform="translate(187.109375 0)"/>
     </g>
    </g>
   </g>
   <g id="text_6">
    <g clip-path="url(#p844adc9c12)">
     <!-- Kleb -->
     <g transform="translate(55.246365 453.078865) scale(0.1 -0.1)">
      <defs>
       <path id="DejaVuSans-Bold-4b" d="M 588 4666 
L 1791 4666 
L 1791 2963 
L 3525 4666 
L 4922 4666 
L 2675 2456 
L 5153 0 
L 3647 0 
L 1791 1838 
L 1791 0 
L 588 0 
L 588 4666 
z
" transform="scale(0.015625)"/>
       <path id="DejaVuSans-Bold-6c" d="M 538 4863 
L 1656 4863 
L 1656 0 
L 538 0 
L 538 4863 
z
" transform="scale(0.015625)"/>
       <path id="DejaVuSans-Bold-62" d="M 2400 722 
Q 2759 722 2948 984 
Q 3138 1247 3138 1747 
Q 3138 2247 2948 2509 
Q 2759 2772 2400 2772 
Q 2041 2772 1848 2508 
Q 1656 2244 1656 1747 
Q 1656 1250 1848 986 
Q 2041 722 2400 722 
z
M 1656 2988 
Q 1888 3294 2169 3439 
Q 2450 3584 2816 3584 
Q 3463 3584 3878 3070 
Q 4294 2556 4294 1747 
Q 4294 938 3878 423 
Q 3463 -91 2816 -91 
Q 2450 -91 2169 54 
Q 1888 200 1656 506 
L 1656 0 
L 538 0 
L 538 4863 
L 1656 4863 
L 1656 2988 
z
" transform="scale(0.015625)"/>
      </defs>
      <use xlink:href="#DejaVuSans-Bold-4b"/>
      <use xlink:href="#DejaVuSans-Bold-6c" transform="translate(77.490234 0)"/>
      <use xlink:href="#DejaVuSans-Bold-65" transform="translate(111.767578 0)"/>
      <use xlink:href="#DejaVuSans-Bold-62" transform="translate(179.589844 0)"/>
     </g>
    </g>
   </g>
   <g id="text_7">
    <g clip-path="url(#p844adc9c12)">
     <!-- H1 -->
     <g transform="translate(348.736719 224.458471) scale(0.1 -0.1)">
      <defs>
       <path id="DejaVuSans-Bold-48" d="M 588 4666 
L 1791 4666 
L 1791 2888 
L 3566 2888 
L 3566 4666 
L 4769 4666 
L 4769 0 
L 3566 0 
L 3566 1978 
L 1791 1978 
L 1791 0 
L 588 0 
L 588 4666 
z
" transform="scale(0.015625)"/>
       <path id="DejaVuSans-Bold-31" d="M 750 831 
L 1813 831 
L 1813 3847 
L 722 3622 
L 722 4441 
L 1806 4666 
L 2950 4666 
L 2950 831 
L 4013 831 
L 4013 0 
L 750 0 
L 750 831 
z
" transform="scale(0.015625)"/>
      </defs>
      <use xlink:href="#DejaVuSans-Bold-48"/>
      <use xlink:href="#DejaVuSans-Bold-31" transform="translate(83.691406 0)"/>
     </g>
    </g>
    <g clip-path="url(#p844adc9c12)">
     <!-- (linear) -->
     <g transform="translate(335.610937 235.656283) scale(0.1 -0.1)">
      <defs>
       <path id="DejaVuSans-Bold-28" d="M 2413 -844 
L 1484 -844 
Q 1006 -72 778 623 
Q 550 1319 550 2003 
Q 550 2688 779 3389 
Q 1009 4091 1484 4856 
L 2413 4856 
Q 2013 4116 1813 3408 
Q 1613 2700 1613 2009 
Q 1613 1319 1811 609 
Q 2009 -100 2413 -844 
z
" transform="scale(0.015625)"/>
       <path id="DejaVuSans-Bold-6e" d="M 4056 2131 
L 4056 0 
L 2931 0 
L 2931 347 
L 2931 1631 
Q 2931 2084 2911 2256 
Q 2891 2428 2841 2509 
Q 2775 2619 2662 2680 
Q 2550 2741 2406 2741 
Q 2056 2741 1856 2470 
Q 1656 2200 1656 1722 
L 1656 0 
L 538 0 
L 538 3500 
L 1656 3500 
L 1656 2988 
Q 1909 3294 2193 3439 
Q 2478 3584 2822 3584 
Q 3428 3584 3742 3212 
Q 4056 2841 4056 2131 
z
" transform="scale(0.015625)"/>
       <path id="DejaVuSans-Bold-29" d="M 513 -844 
Q 913 -100 1113 609 
Q 1313 1319 1313 2009 
Q 1313 2700 1113 3408 
Q 913 4116 513 4856 
L 1441 4856 
Q 1916 4091 2145 3389 
Q 2375 2688 2375 2003 
Q 2375 1319 2147 623 
Q 1919 -72 1441 -844 
L 513 -844 
z
" transform="scale(0.015625)"/>
      </defs>
      <use xlink:href="#DejaVuSans-Bold-28"/>
      <use xlink:href="#DejaVuSans-Bold-6c" transform="translate(45.703125 0)"/>
      <use xlink:href="#DejaVuSans-Bold-69" transform="translate(79.980469 0)"/>
      <use xlink:href="#DejaVuSans-Bold-6e" transform="translate(114.257812 0)"/>
      <use xlink:href="#DejaVuSans-Bold-65" transform="translate(185.449219 0)"/>
      <use xlink:href="#DejaVuSans-Bold-61" transform="translate(253.271484 0)"/>
      <use xlink:href="#DejaVuSans-Bold-72" transform="translate(320.751953 0)"/>
      <use xlink:href="#DejaVuSans-Bold-29" transform="translate(370.068359 0)"/>
     </g>
    </g>
   </g>
   <g id="text_8">
    <g clip-path="url(#p844adc9c12)">
     <!-- H2 -->
     <g transform="translate(348.736719 298.798967) scale(0.1 -0.1)">
      <defs>
       <path id="DejaVuSans-Bold-32" d="M 1844 884 
L 3897 884 
L 3897 0 
L 506 0 
L 506 884 
L 2209 2388 
Q 2438 2594 2547 2791 
Q 2656 2988 2656 3200 
Q 2656 3528 2436 3728 
Q 2216 3928 1850 3928 
Q 1569 3928 1234 3808 
Q 900 3688 519 3450 
L 519 4475 
Q 925 4609 1322 4679 
Q 1719 4750 2100 4750 
Q 2938 4750 3402 4381 
Q 3866 4013 3866 3353 
Q 3866 2972 3669 2642 
Q 3472 2313 2841 1759 
L 1844 884 
z
" transform="scale(0.015625)"/>
      </defs>
      <use xlink:href="#DejaVuSans-Bold-48"/>
      <use xlink:href="#DejaVuSans-Bold-32" transform="translate(83.691406 0)"/>
     </g>
    </g>
    <g clip-path="url(#p844adc9c12)">
     <!-- (linear) -->
     <g transform="translate(335.610937 309.996779) scale(0.1 -0.1)">
      <use xlink:href="#DejaVuSans-Bold-28"/>
      <use xlink:href="#DejaVuSans-Bold-6c" transform="translate(45.703125 0)"/>
      <use xlink:href="#DejaVuSans-Bold-69" transform="translate(79.980469 0)"/>
      <use xlink:href="#DejaVuSans-Bold-6e" transform="translate(114.257812 0)"/>
      <use xlink:href="#DejaVuSans-Bold-65" transform="translate(185.449219 0)"/>
      <use xlink:href="#DejaVuSans-Bold-61" transform="translate(253.271484 0)"/>
      <use xlink:href="#DejaVuSans-Bold-72" transform="translate(320.751953 0)"/>
      <use xlink:href="#DejaVuSans-Bold-29" transform="translate(370.068359 0)"/>
     </g>
    </g>
   </g>
   <g id="text_9">
    <g clip-path="url(#p844adc9c12)">
     <!-- PD -->
     <g transform="translate(637.179416 255.99075) scale(0.1 -0.1)">
      <defs>
       <path id="DejaVuSans-Bold-44" d="M 1791 3756 
L 1791 909 
L 2222 909 
Q 2959 909 3348 1275 
Q 3738 1641 3738 2338 
Q 3738 3031 3350 3393 
Q 2963 3756 2222 3756 
L 1791 3756 
z
M 588 4666 
L 1856 4666 
Q 2919 4666 3439 4514 
Q 3959 4363 4331 4000 
Q 4659 3684 4818 3271 
Q 4978 2859 4978 2338 
Q 4978 1809 4818 1395 
Q 4659 981 4331 666 
Q 3956 303 3431 151 
Q 2906 0 1856 0 
L 588 0 
L 588 4666 
z
" transform="scale(0.015625)"/>
      </defs>
      <use xlink:href="#DejaVuSans-Bold-50"/>
      <use xlink:href="#DejaVuSans-Bold-44" transform="translate(73.291016 0)"/>
     </g>
    </g>
    <g clip-path="url(#p844adc9c12)">
     <!-- Probability -->
     <g transform="translate(614.105979 267.188562) scale(0.1 -0.1)">
      <defs>
       <path id="DejaVuSans-Bold-79" d="M 78 3500 
L 1197 3500 
L 2138 1125 
L 2938 3500 
L 4056 3500 
L 2584 -331 
Q 2363 -916 2067 -1148 
Q 1772 -1381 1288 -1381 
L 641 -1381 
L 641 -647 
L 991 -647 
Q 1275 -647 1404 -556 
Q 1534 -466 1606 -231 
L 1638 -134 
L 78 3500 
z
" transform="scale(0.015625)"/>
      </defs>
      <use xlink:href="#DejaVuSans-Bold-50"/>
      <use xlink:href="#DejaVuSans-Bold-72" transform="translate(73.291016 0)"/>
      <use xlink:href="#DejaVuSans-Bold-6f" transform="translate(122.607422 0)"/>
      <use xlink:href="#DejaVuSans-Bold-62" transform="translate(191.308594 0)"/>
      <use xlink:href="#DejaVuSans-Bold-61" transform="translate(262.890625 0)"/>
      <use xlink:href="#DejaVuSans-Bold-62" transform="translate(330.371094 0)"/>
      <use xlink:href="#DejaVuSans-Bold-69" transform="translate(401.953125 0)"/>
      <use xlink:href="#DejaVuSans-Bold-6c" transform="translate(436.230469 0)"/>
      <use xlink:href="#DejaVuSans-Bold-69" transform="translate(470.507812 0)"/>
      <use xlink:href="#DejaVuSans-Bold-74" transform="translate(504.785156 0)"/>
      <use xlink:href="#DejaVuSans-Bold-79" transform="translate(552.587891 0)"/>
     </g>
    </g>
    <g clip-path="url(#p844adc9c12)">
     <!-- (σ) -->
     <g transform="translate(636.530979 278.4645) scale(0.1 -0.1)">
      <defs>
       <path id="DejaVuSans-Bold-3c3" d="M 2200 2784 
Q 1831 2784 1636 2517 
Q 1441 2250 1441 1747 
Q 1441 1244 1636 976 
Q 1831 709 2200 709 
Q 2569 709 2762 976 
Q 2956 1244 2956 1747 
Q 2956 2250 2762 2517 
Q 2569 2784 2200 2784 
z
M 4650 2700 
L 3916 2700 
Q 4122 2291 4122 1747 
Q 4122 884 3614 396 
Q 3106 -91 2203 -91 
Q 1297 -91 786 396 
Q 275 884 275 1747 
Q 275 2609 788 3097 
Q 1209 3500 2203 3500 
L 4650 3500 
L 4650 2700 
z
" transform="scale(0.015625)"/>
      </defs>
      <use xlink:href="#DejaVuSans-Bold-28"/>
      <use xlink:href="#DejaVuSans-Bold-3c3" transform="translate(45.703125 0)"/>
      <use xlink:href="#DejaVuSans-Bold-29" transform="translate(123.583984 0)"/>
     </g>
    </g>
   </g>
   <g id="text_10">
    <!-- Dynamic Network Visualization (2 Linear Node) -->
    <g transform="translate(191.026094 17.837813) scale(0.14 -0.14)">
     <defs>
      <path id="DejaVuSans-44" d="M 1259 4147 
L 1259 519 
L 2022 519 
Q 2988 519 3436 956 
Q 3884 1394 3884 2338 
Q 3884 3275 3436 3711 
Q 2988 4147 2022 4147 
L 1259 4147 
z
M 628 4666 
L 1925 4666 
Q 3281 4666 3915 4102 
Q 4550 3538 4550 2338 
Q 4550 1131 3912 565 
Q 3275 0 1925 0 
L 628 0 
L 628 4666 
z
" transform="scale(0.015625)"/>
      <path id="DejaVuSans-79" d="M 2059 -325 
Q 1816 -950 1584 -1140 
Q 1353 -1331 966 -1331 
L 506 -1331 
L 506 -850 
L 844 -850 
Q 1081 -850 1212 -737 
Q 1344 -625 1503 -206 
L 1606 56 
L 191 3500 
L 800 3500 
L 1894 763 
L 2988 3500 
L 3597 3500 
L 2059 -325 
z
" transform="scale(0.015625)"/>
      <path id="DejaVuSans-6e" d="M 3513 2113 
L 3513 0 
L 2938 0 
L 2938 2094 
Q 2938 2591 2744 2837 
Q 2550 3084 2163 3084 
Q 1697 3084 1428 2787 
Q 1159 2491 1159 1978 
L 1159 0 
L 581 0 
L 581 3500 
L 1159 3500 
L 1159 2956 
Q 1366 3272 1645 3428 
Q 1925 3584 2291 3584 
Q 2894 3584 3203 3211 
Q 3513 2838 3513 2113 
z
" transform="scale(0.015625)"/>
      <path id="DejaVuSans-61" d="M 2194 1759 
Q 1497 1759 1228 1600 
Q 959 1441 959 1056 
Q 959 750 1161 570 
Q 1363 391 1709 391 
Q 2188 391 2477 730 
Q 2766 1069 2766 1631 
L 2766 1759 
L 2194 1759 
z
M 3341 1997 
L 3341 0 
L 2766 0 
L 2766 531 
Q 2569 213 2275 61 
Q 1981 -91 1556 -91 
Q 1019 -91 701 211 
Q 384 513 384 1019 
Q 384 1609 779 1909 
Q 1175 2209 1959 2209 
L 2766 2209 
L 2766 2266 
Q 2766 2663 2505 2880 
Q 2244 3097 1772 3097 
Q 1472 3097 1187 3025 
Q 903 2953 641 2809 
L 641 3341 
Q 956 3463 1253 3523 
Q 1550 3584 1831 3584 
Q 2591 3584 2966 3190 
Q 3341 2797 3341 1997 
z
" transform="scale(0.015625)"/>
      <path id="DejaVuSans-6d" d="M 3328 2828 
Q 3544 3216 3844 3400 
Q 4144 3584 4550 3584 
Q 5097 3584 5394 3201 
Q 5691 2819 5691 2113 
L 5691 0 
L 5113 0 
L 5113 2094 
Q 5113 2597 4934 2840 
Q 4756 3084 4391 3084 
Q 3944 3084 3684 2787 
Q 3425 2491 3425 1978 
L 3425 0 
L 2847 0 
L 2847 2094 
Q 2847 2600 2669 2842 
Q 2491 3084 2119 3084 
Q 1678 3084 1418 2786 
Q 1159 2488 1159 1978 
L 1159 0 
L 581 0 
L 581 3500 
L 1159 3500 
L 1159 2956 
Q 1356 3278 1631 3431 
Q 1906 3584 2284 3584 
Q 2666 3584 2933 3390 
Q 3200 3197 3328 2828 
z
" transform="scale(0.015625)"/>
      <path id="DejaVuSans-69" d="M 603 3500 
L 1178 3500 
L 1178 0 
L 603 0 
L 603 3500 
z
M 603 4863 
L 1178 4863 
L 1178 4134 
L 603 4134 
L 603 4863 
z
" transform="scale(0.015625)"/>
      <path id="DejaVuSans-63" d="M 3122 3366 
L 3122 2828 
Q 2878 2963 2633 3030 
Q 2388 3097 2138 3097 
Q 1578 3097 1268 2742 
Q 959 2388 959 1747 
Q 959 1106 1268 751 
Q 1578 397 2138 397 
Q 2388 397 2633 464 
Q 2878 531 3122 666 
L 3122 134 
Q 2881 22 2623 -34 
Q 2366 -91 2075 -91 
Q 1284 -91 818 406 
Q 353 903 353 1747 
Q 353 2603 823 3093 
Q 1294 3584 2113 3584 
Q 2378 3584 2631 3529 
Q 2884 3475 3122 3366 
z
" transform="scale(0.015625)"/>
      <path id="DejaVuSans-20" transform="scale(0.015625)"/>
      <path id="DejaVuSans-4e" d="M 628 4666 
L 1478 4666 
L 3547 763 
L 3547 4666 
L 4159 4666 
L 4159 0 
L 3309 0 
L 1241 3903 
L 1241 0 
L 628 0 
L 628 4666 
z
" transform="scale(0.015625)"/>
      <path id="DejaVuSans-65" d="M 3597 1894 
L 3597 1613 
L 953 1613 
Q 991 1019 1311 708 
Q 1631 397 2203 397 
Q 2534 397 2845 478 
Q 3156 559 3463 722 
L 3463 178 
Q 3153 47 2828 -22 
Q 2503 -91 2169 -91 
Q 1331 -91 842 396 
Q 353 884 353 1716 
Q 353 2575 817 3079 
Q 1281 3584 2069 3584 
Q 2775 3584 3186 3129 
Q 3597 2675 3597 1894 
z
M 3022 2063 
Q 3016 2534 2758 2815 
Q 2500 3097 2075 3097 
Q 1594 3097 1305 2825 
Q 1016 2553 972 2059 
L 3022 2063 
z
" transform="scale(0.015625)"/>
      <path id="DejaVuSans-74" d="M 1172 4494 
L 1172 3500 
L 2356 3500 
L 2356 3053 
L 1172 3053 
L 1172 1153 
Q 1172 725 1289 603 
Q 1406 481 1766 481 
L 2356 481 
L 2356 0 
L 1766 0 
Q 1100 0 847 248 
Q 594 497 594 1153 
L 594 3053 
L 172 3053 
L 172 3500 
L 594 3500 
L 594 4494 
L 1172 4494 
z
" transform="scale(0.015625)"/>
      <path id="DejaVuSans-77" d="M 269 3500 
L 844 3500 
L 1563 769 
L 2278 3500 
L 2956 3500 
L 3675 769 
L 4391 3500 
L 4966 3500 
L 4050 0 
L 3372 0 
L 2619 2869 
L 1863 0 
L 1184 0 
L 269 3500 
z
" transform="scale(0.015625)"/>
      <path id="DejaVuSans-6f" d="M 1959 3097 
Q 1497 3097 1228 2736 
Q 959 2375 959 1747 
Q 959 1119 1226 758 
Q 1494 397 1959 397 
Q 2419 397 2687 759 
Q 2956 1122 2956 1747 
Q 2956 2369 2687 2733 
Q 2419 3097 1959 3097 
z
M 1959 3584 
Q 2709 3584 3137 3096 
Q 3566 2609 3566 1747 
Q 3566 888 3137 398 
Q 2709 -91 1959 -91 
Q 1206 -91 779 398 
Q 353 888 353 1747 
Q 353 2609 779 3096 
Q 1206 3584 1959 3584 
z
" transform="scale(0.015625)"/>
      <path id="DejaVuSans-72" d="M 2631 2963 
Q 2534 3019 2420 3045 
Q 2306 3072 2169 3072 
Q 1681 3072 1420 2755 
Q 1159 2438 1159 1844 
L 1159 0 
L 581 0 
L 581 3500 
L 1159 3500 
L 1159 2956 
Q 1341 3275 1631 3429 
Q 1922 3584 2338 3584 
Q 2397 3584 2469 3576 
Q 2541 3569 2628 3553 
L 2631 2963 
z
" transform="scale(0.015625)"/>
      <path id="DejaVuSans-6b" d="M 581 4863 
L 1159 4863 
L 1159 1991 
L 2875 3500 
L 3609 3500 
L 1753 1863 
L 3688 0 
L 2938 0 
L 1159 1709 
L 1159 0 
L 581 0 
L 581 4863 
z
" transform="scale(0.015625)"/>
      <path id="DejaVuSans-56" d="M 1831 0 
L 50 4666 
L 709 4666 
L 2188 738 
L 3669 4666 
L 4325 4666 
L 2547 0 
L 1831 0 
z
" transform="scale(0.015625)"/>
      <path id="DejaVuSans-73" d="M 2834 3397 
L 2834 2853 
Q 2591 2978 2328 3040 
Q 2066 3103 1784 3103 
Q 1356 3103 1142 2972 
Q 928 2841 928 2578 
Q 928 2378 1081 2264 
Q 1234 2150 1697 2047 
L 1894 2003 
Q 2506 1872 2764 1633 
Q 3022 1394 3022 966 
Q 3022 478 2636 193 
Q 2250 -91 1575 -91 
Q 1294 -91 989 -36 
Q 684 19 347 128 
L 347 722 
Q 666 556 975 473 
Q 1284 391 1588 391 
Q 1994 391 2212 530 
Q 2431 669 2431 922 
Q 2431 1156 2273 1281 
Q 2116 1406 1581 1522 
L 1381 1569 
Q 847 1681 609 1914 
Q 372 2147 372 2553 
Q 372 3047 722 3315 
Q 1072 3584 1716 3584 
Q 2034 3584 2315 3537 
Q 2597 3491 2834 3397 
z
" transform="scale(0.015625)"/>
      <path id="DejaVuSans-75" d="M 544 1381 
L 544 3500 
L 1119 3500 
L 1119 1403 
Q 1119 906 1312 657 
Q 1506 409 1894 409 
Q 2359 409 2629 706 
Q 2900 1003 2900 1516 
L 2900 3500 
L 3475 3500 
L 3475 0 
L 2900 0 
L 2900 538 
Q 2691 219 2414 64 
Q 2138 -91 1772 -91 
Q 1169 -91 856 284 
Q 544 659 544 1381 
z
M 1991 3584 
L 1991 3584 
z
" transform="scale(0.015625)"/>
      <path id="DejaVuSans-6c" d="M 603 4863 
L 1178 4863 
L 1178 0 
L 603 0 
L 603 4863 
z
" transform="scale(0.015625)"/>
      <path id="DejaVuSans-7a" d="M 353 3500 
L 3084 3500 
L 3084 2975 
L 922 459 
L 3084 459 
L 3084 0 
L 275 0 
L 275 525 
L 2438 3041 
L 353 3041 
L 353 3500 
z
" transform="scale(0.015625)"/>
      <path id="DejaVuSans-28" d="M 1984 4856 
Q 1566 4138 1362 3434 
Q 1159 2731 1159 2009 
Q 1159 1288 1364 580 
Q 1569 -128 1984 -844 
L 1484 -844 
Q 1016 -109 783 600 
Q 550 1309 550 2009 
Q 550 2706 781 3412 
Q 1013 4119 1484 4856 
L 1984 4856 
z
" transform="scale(0.015625)"/>
      <path id="DejaVuSans-32" d="M 1228 531 
L 3431 531 
L 3431 0 
L 469 0 
L 469 531 
Q 828 903 1448 1529 
Q 2069 2156 2228 2338 
Q 2531 2678 2651 2914 
Q 2772 3150 2772 3378 
Q 2772 3750 2511 3984 
Q 2250 4219 1831 4219 
Q 1534 4219 1204 4116 
Q 875 4013 500 3803 
L 500 4441 
Q 881 4594 1212 4672 
Q 1544 4750 1819 4750 
Q 2544 4750 2975 4387 
Q 3406 4025 3406 3419 
Q 3406 3131 3298 2873 
Q 3191 2616 2906 2266 
Q 2828 2175 2409 1742 
Q 1991 1309 1228 531 
z
" transform="scale(0.015625)"/>
      <path id="DejaVuSans-4c" d="M 628 4666 
L 1259 4666 
L 1259 531 
L 3531 531 
L 3531 0 
L 628 0 
L 628 4666 
z
" transform="scale(0.015625)"/>
      <path id="DejaVuSans-64" d="M 2906 2969 
L 2906 4863 
L 3481 4863 
L 3481 0 
L 2906 0 
L 2906 525 
Q 2725 213 2448 61 
Q 2172 -91 1784 -91 
Q 1150 -91 751 415 
Q 353 922 353 1747 
Q 353 2572 751 3078 
Q 1150 3584 1784 3584 
Q 2172 3584 2448 3432 
Q 2725 3281 2906 2969 
z
M 947 1747 
Q 947 1113 1208 752 
Q 1469 391 1925 391 
Q 2381 391 2643 752 
Q 2906 1113 2906 1747 
Q 2906 2381 2643 2742 
Q 2381 3103 1925 3103 
Q 1469 3103 1208 2742 
Q 947 2381 947 1747 
z
" transform="scale(0.015625)"/>
      <path id="DejaVuSans-29" d="M 513 4856 
L 1013 4856 
Q 1481 4119 1714 3412 
Q 1947 2706 1947 2009 
Q 1947 1309 1714 600 
Q 1481 -109 1013 -844 
L 513 -844 
Q 928 -128 1133 580 
Q 1338 1288 1338 2009 
Q 1338 2731 1133 3434 
Q 928 4138 513 4856 
z
" transform="scale(0.015625)"/>
     </defs>
     <use xlink:href="#DejaVuSans-44"/>
     <use xlink:href="#DejaVuSans-79" transform="translate(77.001953 0)"/>
     <use xlink:href="#DejaVuSans-6e" transform="translate(136.181641 0)"/>
     <use xlink:href="#DejaVuSans-61" transform="translate(199.560547 0)"/>
     <use xlink:href="#DejaVuSans-6d" transform="translate(260.839844 0)"/>
     <use xlink:href="#DejaVuSans-69" transform="translate(358.251953 0)"/>
     <use xlink:href="#DejaVuSans-63" transform="translate(386.035156 0)"/>
     <use xlink:href="#DejaVuSans-20" transform="translate(441.015625 0)"/>
     <use xlink:href="#DejaVuSans-4e" transform="translate(472.802734 0)"/>
     <use xlink:href="#DejaVuSans-65" transform="translate(547.607422 0)"/>
     <use xlink:href="#DejaVuSans-74" transform="translate(609.130859 0)"/>
     <use xlink:href="#DejaVuSans-77" transform="translate(648.339844 0)"/>
     <use xlink:href="#DejaVuSans-6f" transform="translate(730.126953 0)"/>
     <use xlink:href="#DejaVuSans-72" transform="translate(791.308594 0)"/>
     <use xlink:href="#DejaVuSans-6b" transform="translate(832.421875 0)"/>
     <use xlink:href="#DejaVuSans-20" transform="translate(890.332031 0)"/>
     <use xlink:href="#DejaVuSans-56" transform="translate(922.119141 0)"/>
     <use xlink:href="#DejaVuSans-69" transform="translate(988.277344 0)"/>
     <use xlink:href="#DejaVuSans-73" transform="translate(1016.060547 0)"/>
     <use xlink:href="#DejaVuSans-75" transform="translate(1068.160156 0)"/>
     <use xlink:href="#DejaVuSans-61" transform="translate(1131.539062 0)"/>
     <use xlink:href="#DejaVuSans-6c" transform="translate(1192.818359 0)"/>
     <use xlink:href="#DejaVuSans-69" transform="translate(1220.601562 0)"/>
     <use xlink:href="#DejaVuSans-7a" transform="translate(1248.384766 0)"/>
     <use xlink:href="#DejaVuSans-61" transform="translate(1300.875 0)"/>
     <use xlink:href="#DejaVuSans-74" transform="translate(1362.154297 0)"/>
     <use xlink:href="#DejaVuSans-69" transform="translate(1401.363281 0)"/>
     <use xlink:href="#DejaVuSans-6f" transform="translate(1429.146484 0)"/>
     <use xlink:href="#DejaVuSans-6e" transform="translate(1490.328125 0)"/>
     <use xlink:href="#DejaVuSans-20" transform="translate(1553.707031 0)"/>
     <use xlink:href="#DejaVuSans-28" transform="translate(1585.494141 0)"/>
     <use xlink:href="#DejaVuSans-32" transform="translate(1624.507812 0)"/>
     <use xlink:href="#DejaVuSans-20" transform="translate(1688.130859 0)"/>
     <use xlink:href="#DejaVuSans-4c" transform="translate(1719.917969 0)"/>
     <use xlink:href="#DejaVuSans-69" transform="translate(1775.630859 0)"/>
     <use xlink:href="#DejaVuSans-6e" transform="translate(1803.414062 0)"/>
     <use xlink:href="#DejaVuSans-65" transform="translate(1866.792969 0)"/>
     <use xlink:href="#DejaVuSans-61" transform="translate(1928.316406 0)"/>
     <use xlink:href="#DejaVuSans-72" transform="translate(1989.595703 0)"/>
     <use xlink:href="#DejaVuSans-20" transform="translate(2030.708984 0)"/>
     <use xlink:href="#DejaVuSans-4e" transform="translate(2062.496094 0)"/>
     <use xlink:href="#DejaVuSans-6f" transform="translate(2137.300781 0)"/>
     <use xlink:href="#DejaVuSans-64" transform="translate(2198.482422 0)"/>
     <use xlink:href="#DejaVuSans-65" transform="translate(2261.958984 0)"/>
     <use xlink:href="#DejaVuSans-29" transform="translate(2323.482422 0)"/>
    </g>
    <!-- (Thick = Strong Weight | Blue = Positive | Red = Negative) -->
    <g transform="translate(150.947812 33.58825) scale(0.14 -0.14)">
     <defs>
      <path id="DejaVuSans-54" d="M -19 4666 
L 3928 4666 
L 3928 4134 
L 2272 4134 
L 2272 0 
L 1638 0 
L 1638 4134 
L -19 4134 
L -19 4666 
z
" transform="scale(0.015625)"/>
      <path id="DejaVuSans-68" d="M 3513 2113 
L 3513 0 
L 2938 0 
L 2938 2094 
Q 2938 2591 2744 2837 
Q 2550 3084 2163 3084 
Q 1697 3084 1428 2787 
Q 1159 2491 1159 1978 
L 1159 0 
L 581 0 
L 581 4863 
L 1159 4863 
L 1159 2956 
Q 1366 3272 1645 3428 
Q 1925 3584 2291 3584 
Q 2894 3584 3203 3211 
Q 3513 2838 3513 2113 
z
" transform="scale(0.015625)"/>
      <path id="DejaVuSans-3d" d="M 678 2906 
L 4684 2906 
L 4684 2381 
L 678 2381 
L 678 2906 
z
M 678 1631 
L 4684 1631 
L 4684 1100 
L 678 1100 
L 678 1631 
z
" transform="scale(0.015625)"/>
      <path id="DejaVuSans-53" d="M 3425 4513 
L 3425 3897 
Q 3066 4069 2747 4153 
Q 2428 4238 2131 4238 
Q 1616 4238 1336 4038 
Q 1056 3838 1056 3469 
Q 1056 3159 1242 3001 
Q 1428 2844 1947 2747 
L 2328 2669 
Q 3034 2534 3370 2195 
Q 3706 1856 3706 1288 
Q 3706 609 3251 259 
Q 2797 -91 1919 -91 
Q 1588 -91 1214 -16 
Q 841 59 441 206 
L 441 856 
Q 825 641 1194 531 
Q 1563 422 1919 422 
Q 2459 422 2753 634 
Q 3047 847 3047 1241 
Q 3047 1584 2836 1778 
Q 2625 1972 2144 2069 
L 1759 2144 
Q 1053 2284 737 2584 
Q 422 2884 422 3419 
Q 422 4038 858 4394 
Q 1294 4750 2059 4750 
Q 2388 4750 2728 4690 
Q 3069 4631 3425 4513 
z
" transform="scale(0.015625)"/>
      <path id="DejaVuSans-67" d="M 2906 1791 
Q 2906 2416 2648 2759 
Q 2391 3103 1925 3103 
Q 1463 3103 1205 2759 
Q 947 2416 947 1791 
Q 947 1169 1205 825 
Q 1463 481 1925 481 
Q 2391 481 2648 825 
Q 2906 1169 2906 1791 
z
M 3481 434 
Q 3481 -459 3084 -895 
Q 2688 -1331 1869 -1331 
Q 1566 -1331 1297 -1286 
Q 1028 -1241 775 -1147 
L 775 -588 
Q 1028 -725 1275 -790 
Q 1522 -856 1778 -856 
Q 2344 -856 2625 -561 
Q 2906 -266 2906 331 
L 2906 616 
Q 2728 306 2450 153 
Q 2172 0 1784 0 
Q 1141 0 747 490 
Q 353 981 353 1791 
Q 353 2603 747 3093 
Q 1141 3584 1784 3584 
Q 2172 3584 2450 3431 
Q 2728 3278 2906 2969 
L 2906 3500 
L 3481 3500 
L 3481 434 
z
" transform="scale(0.015625)"/>
      <path id="DejaVuSans-57" d="M 213 4666 
L 850 4666 
L 1831 722 
L 2809 4666 
L 3519 4666 
L 4500 722 
L 5478 4666 
L 6119 4666 
L 4947 0 
L 4153 0 
L 3169 4050 
L 2175 0 
L 1381 0 
L 213 4666 
z
" transform="scale(0.015625)"/>
      <path id="DejaVuSans-7c" d="M 1344 4891 
L 1344 -1509 
L 813 -1509 
L 813 4891 
L 1344 4891 
z
" transform="scale(0.015625)"/>
      <path id="DejaVuSans-42" d="M 1259 2228 
L 1259 519 
L 2272 519 
Q 2781 519 3026 730 
Q 3272 941 3272 1375 
Q 3272 1813 3026 2020 
Q 2781 2228 2272 2228 
L 1259 2228 
z
M 1259 4147 
L 1259 2741 
L 2194 2741 
Q 2656 2741 2882 2914 
Q 3109 3088 3109 3444 
Q 3109 3797 2882 3972 
Q 2656 4147 2194 4147 
L 1259 4147 
z
M 628 4666 
L 2241 4666 
Q 2963 4666 3353 4366 
Q 3744 4066 3744 3513 
Q 3744 3084 3544 2831 
Q 3344 2578 2956 2516 
Q 3422 2416 3680 2098 
Q 3938 1781 3938 1306 
Q 3938 681 3513 340 
Q 3088 0 2303 0 
L 628 0 
L 628 4666 
z
" transform="scale(0.015625)"/>
      <path id="DejaVuSans-50" d="M 1259 4147 
L 1259 2394 
L 2053 2394 
Q 2494 2394 2734 2622 
Q 2975 2850 2975 3272 
Q 2975 3691 2734 3919 
Q 2494 4147 2053 4147 
L 1259 4147 
z
M 628 4666 
L 2053 4666 
Q 2838 4666 3239 4311 
Q 3641 3956 3641 3272 
Q 3641 2581 3239 2228 
Q 2838 1875 2053 1875 
L 1259 1875 
L 1259 0 
L 628 0 
L 628 4666 
z
" transform="scale(0.015625)"/>
      <path id="DejaVuSans-76" d="M 191 3500 
L 800 3500 
L 1894 563 
L 2988 3500 
L 3597 3500 
L 2284 0 
L 1503 0 
L 191 3500 
z
" transform="scale(0.015625)"/>
      <path id="DejaVuSans-52" d="M 2841 2188 
Q 3044 2119 3236 1894 
Q 3428 1669 3622 1275 
L 4263 0 
L 3584 0 
L 2988 1197 
Q 2756 1666 2539 1819 
Q 2322 1972 1947 1972 
L 1259 1972 
L 1259 0 
L 628 0 
L 628 4666 
L 2053 4666 
Q 2853 4666 3247 4331 
Q 3641 3997 3641 3322 
Q 3641 2881 3436 2590 
Q 3231 2300 2841 2188 
z
M 1259 4147 
L 1259 2491 
L 2053 2491 
Q 2509 2491 2742 2702 
Q 2975 2913 2975 3322 
Q 2975 3731 2742 3939 
Q 2509 4147 2053 4147 
L 1259 4147 
z
" transform="scale(0.015625)"/>
     </defs>
     <use xlink:href="#DejaVuSans-28"/>
     <use xlink:href="#DejaVuSans-54" transform="translate(39.013672 0)"/>
     <use xlink:href="#DejaVuSans-68" transform="translate(100.097656 0)"/>
     <use xlink:href="#DejaVuSans-69" transform="translate(163.476562 0)"/>
     <use xlink:href="#DejaVuSans-63" transform="translate(191.259766 0)"/>
     <use xlink:href="#DejaVuSans-6b" transform="translate(246.240234 0)"/>
     <use xlink:href="#DejaVuSans-20" transform="translate(304.150391 0)"/>
     <use xlink:href="#DejaVuSans-3d" transform="translate(335.9375 0)"/>
     <use xlink:href="#DejaVuSans-20" transform="translate(419.726562 0)"/>
     <use xlink:href="#DejaVuSans-53" transform="translate(451.513672 0)"/>
     <use xlink:href="#DejaVuSans-74" transform="translate(514.990234 0)"/>
     <use xlink:href="#DejaVuSans-72" transform="translate(554.199219 0)"/>
     <use xlink:href="#DejaVuSans-6f" transform="translate(593.0625 0)"/>
     <use xlink:href="#DejaVuSans-6e" transform="translate(654.244141 0)"/>
     <use xlink:href="#DejaVuSans-67" transform="translate(717.623047 0)"/>
     <use xlink:href="#DejaVuSans-20" transform="translate(781.099609 0)"/>
     <use xlink:href="#DejaVuSans-57" transform="translate(812.886719 0)"/>
     <use xlink:href="#DejaVuSans-65" transform="translate(905.888672 0)"/>
     <use xlink:href="#DejaVuSans-69" transform="translate(967.412109 0)"/>
     <use xlink:href="#DejaVuSans-67" transform="translate(995.195312 0)"/>
     <use xlink:href="#DejaVuSans-68" transform="translate(1058.671875 0)"/>
     <use xlink:href="#DejaVuSans-74" transform="translate(1122.050781 0)"/>
     <use xlink:href="#DejaVuSans-20" transform="translate(1161.259766 0)"/>
     <use xlink:href="#DejaVuSans-7c" transform="translate(1193.046875 0)"/>
     <use xlink:href="#DejaVuSans-20" transform="translate(1226.738281 0)"/>
     <use xlink:href="#DejaVuSans-42" transform="translate(1258.525391 0)"/>
     <use xlink:href="#DejaVuSans-6c" transform="translate(1327.128906 0)"/>
     <use xlink:href="#DejaVuSans-75" transform="translate(1354.912109 0)"/>
     <use xlink:href="#DejaVuSans-65" transform="translate(1418.291016 0)"/>
     <use xlink:href="#DejaVuSans-20" transform="translate(1479.814453 0)"/>
     <use xlink:href="#DejaVuSans-3d" transform="translate(1511.601562 0)"/>
     <use xlink:href="#DejaVuSans-20" transform="translate(1595.390625 0)"/>
     <use xlink:href="#DejaVuSans-50" transform="translate(1627.177734 0)"/>
     <use xlink:href="#DejaVuSans-6f" transform="translate(1683.855469 0)"/>
     <use xlink:href="#DejaVuSans-73" transform="translate(1745.037109 0)"/>
     <use xlink:href="#DejaVuSans-69" transform="translate(1797.136719 0)"/>
     <use xlink:href="#DejaVuSans-74" transform="translate(1824.919922 0)"/>
     <use xlink:href="#DejaVuSans-69" transform="translate(1864.128906 0)"/>
     <use xlink:href="#DejaVuSans-76" transform="translate(1891.912109 0)"/>
     <use xlink:href="#DejaVuSans-65" transform="translate(1951.091797 0)"/>
     <use xlink:href="#DejaVuSans-20" transform="translate(2012.615234 0)"/>
     <use xlink:href="#DejaVuSans-7c" transform="translate(2044.402344 0)"/>
     <use xlink:href="#DejaVuSans-20" transform="translate(2078.09375 0)"/>
     <use xlink:href="#DejaVuSans-52" transform="translate(2109.880859 0)"/>
     <use xlink:href="#DejaVuSans-65" transform="translate(2174.863281 0)"/>
     <use xlink:href="#DejaVuSans-64" transform="translate(2236.386719 0)"/>
     <use xlink:href="#DejaVuSans-20" transform="translate(2299.863281 0)"/>
     <use xlink:href="#DejaVuSans-3d" transform="translate(2331.650391 0)"/>
     <use xlink:href="#DejaVuSans-20" transform="translate(2415.439453 0)"/>
     <use xlink:href="#DejaVuSans-4e" transform="translate(2447.226562 0)"/>
     <use xlink:href="#DejaVuSans-65" transform="translate(2522.03125 0)"/>
     <use xlink:href="#DejaVuSans-67" transform="translate(2583.554688 0)"/>
     <use xlink:href="#DejaVuSans-61" transform="translate(2647.03125 0)"/>
     <use xlink:href="#DejaVuSans-74" transform="translate(2708.310547 0)"/>
     <use xlink:href="#DejaVuSans-69" transform="translate(2747.519531 0)"/>
     <use xlink:href="#DejaVuSans-76" transform="translate(2775.302734 0)"/>
     <use xlink:href="#DejaVuSans-65" transform="translate(2834.482422 0)"/>
     <use xlink:href="#DejaVuSans-29" transform="translate(2896.005859 0)"/>
    </g>
   </g>
  </g>
 </g>
 <defs>
  <clipPath id="p844adc9c12">
   <rect x="7.2" y="39.58825" width="698.4" height="449.76"/>
  </clipPath>
 </defs>
</svg>
